<svg id="zomad" xmlns="http://www.w3.org/2000/svg" viewBox="154 0 200 512" style="background-color:#7E93FF"><rect width="200%" height="100%" fill="#7E93FF" />NaN2><defs><linearGradient id="linear-gradient" x1="259.21" y1="334.51" x2="253.35" y2="314.04" gradientTransform="matrix(1, 0, 0, -1, 0, 512)" gradientUnits="userSpaceOnUse"><stop offset="0.18" stop-color="#b73e11" stop-opacity="0.8"/><stop offset="0.78" stop-color="#eb6524"/></linearGradient></defs><path d="M293.8,212l7.56-.17a2.07,2.07,0,0,1,2,1.43l3.18,9.59a2.08,2.08,0,0,1-1.59,2.69l-15.47,3Z" style="fill:#f26522"/><path d="M199,270.6l-8.32-1.54a2.62,2.62,0,0,1-1.82-3.85L218.2,212l5.9,11.5Z" style="fill:#f26522"/><polygon points="238.2 305.3 226.3 305.3 220.3 378.7 223.3 440.4 233.2 440.4 231.2 379.2 238.2 305.3" style="fill:#f26522"/><polygon points="290.2 305.3 278.3 305.3 282.3 381.5 278.3 440.4 290.2 440.4 294.2 381.6 290.2 305.3" style="fill:#f26522"/><polygon points="226.3 435.6 232.2 435.3 236 454.4 199.9 454.4 203.9 448.9 226.3 435.6" style="fill:#f26522"/><polygon points="290.1 435.6 278.3 435.1 274.4 454.4 316.5 454.4 312.5 448.9 290.1 435.6" style="fill:#f26522"/><polygon points="295.8 310.3 216.2 310.3 221 223.4 218.2 212 247.3 204.4 255.8 221.9 266.6 204.4 293.8 212 291 226.4 295.8 310.3" style="fill:#f26522"/><polygon points="245 178.7 247.3 204.4 255.8 221.9 266.6 204.4 267.6 178.7 245 178.7" style="fill:#f26522"/><polygon points="245.1 180.7 267.5 181.1 266.9 196.7 246.2 192.5 245.1 180.7" style="fill:url(#linear-gradient)"/><path d="M256.5,156.2h17.1c.6,0,.8.1.6.7-1.4,6.3-5.4,10.3-11.3,12.4a19.16,19.16,0,0,1-20.7-5.2,14.76,14.76,0,0,1-3.5-7.2c-.1-.6-.1-.8.6-.8C245.1,156.2,250.8,156.2,256.5,156.2Z" style="fill:#fffefd"/><path d="M240.1,142a10.2,10.2,0,1,1,10.2-10.2v.1A10.16,10.16,0,0,1,240.1,142Zm.1-10.2a2.8,2.8,0,0,0-2.8,2.8,2.8,2.8,0,0,0,5.6,0h0a2.8,2.8,0,0,0-2.8-2.8Z" style="fill:#fffdfc"/><path d="M272.4,121.6a10.2,10.2,0,1,1-10.2,10.2v-.1a10.29,10.29,0,0,1,10.2-10.1Zm.2,10.2a2.8,2.8,0,1,0,2.8,2.8,2.8,2.8,0,0,0-2.8-2.8Z" style="fill:#fffdfc"/><path d="M280.8,116.6c-.1,1.2-.3,1.3-1.4,1.1-3-.7-5.9-1.3-8.9-1.9-.5-.1-.5-.3-.4-.7a4.33,4.33,0,0,1,.1-.5c0-.4.2-.5.6-.4l9.5,2.1C280.7,116.2,280.9,116.3,280.8,116.6Z" style="fill:#3b3936"/><path d="M242.5,114.3c.2,0,.2,0,.3.2.5.9.2,1.5-.7,1.7-3,.6-5.9,1.2-8.9,1.9-.5.1-.7,0-.8-.5,0-.2-.1-.4-.1-.7s0-.4.3-.4l9.7-2.1Z" style="fill:#3b3936"/><path d="M240.2,131.8a2.8,2.8,0,1,1-2.8,2.8,2.8,2.8,0,0,1,2.8-2.8Z" style="fill:#2c1814"/><path d="M272.6,131.8a2.8,2.8,0,1,1-2.8,2.8A2.8,2.8,0,0,1,272.6,131.8Z" style="fill:#2c1814"/><path d="M219.5,149.7c-.1,0-.1.1-.2.1-2.6,2.3-5.6,1.8-7.8-.9a12.65,12.65,0,0,1-2.6-7.2,16,16,0,0,1,1.2-7.5,8.23,8.23,0,0,1,2.8-3.6,4.61,4.61,0,0,1,4.9-.6c.5.2.6.1.6-.4a49.14,49.14,0,0,1,9.7-24.1c5.4-7,12.2-12,20.8-14.1,10.1-2.5,19.4-.5,27.8,5.4,8,5.5,13.1,13.2,16.3,22.2a43.72,43.72,0,0,1,2.4,10.1c.1.5.2.6.7.6a5.13,5.13,0,0,1,4.6,2,11.66,11.66,0,0,1,2.7,6.1,16.22,16.22,0,0,1-.9,8.7,8.8,8.8,0,0,1-2.8,3.8,4.82,4.82,0,0,1-4.9.7c-.5-.2-.7-.2-.9.4a47.17,47.17,0,0,1-7.4,15.5c-5,6.9-11.4,12.1-19.7,14.6-11.1,3.4-21.4,1.3-30.8-5.5a41.17,41.17,0,0,1-4-3.3,46.68,46.68,0,0,1-11.7-19.1A20.62,20.62,0,0,0,219.5,149.7Zm37.1,6.5H239.5c-.7,0-.7.2-.6.8a15.19,15.19,0,0,0,3.5,7.2,19.16,19.16,0,0,0,20.7,5.2c5.9-2.1,9.9-6.1,11.3-12.4.1-.6,0-.7-.6-.7-5.8-.1-11.5-.1-17.2-.1ZM240.1,142a10.2,10.2,0,1,0-10.2-10.2A10.24,10.24,0,0,0,240.1,142Zm32.3-20.4a10.2,10.2,0,1,0,10.2,10.2,10.24,10.24,0,0,0-10.2-10.2Zm8.4-5c.1-.3-.1-.4-.4-.4-3.2-.7-6.4-1.4-9.5-2.1-.4-.1-.6,0-.6.4a4.33,4.33,0,0,1-.1.5c-.1.4-.1.6.4.7,3,.6,5.9,1.3,8.9,1.9,1,.3,1.2.2,1.3-1Zm-38.3-2.2h-.1l-9.7,2.1c-.3.1-.4.2-.3.4a1.48,1.48,0,0,1,.1.7c.1.5.2.7.8.5,2.9-.7,5.9-1.3,8.9-1.9,1-.2,1.2-.8.7-1.7-.2-.2-.3-.2-.4-.1Z" style="fill:#f26724"/><path id="Pants" d="M295.7,309.5H216.3l-.9,39.5h24.5c1.4-5.7,14-21.6,14-21.6H260s14.6,15.9,16,21.6h19.6Z" style="fill:#e5e5e5"/><polygon points="218.4 266.2 220.5 233.3 230 208.9 233 208.2 255.8 230.8 278 207.6 282.8 208.9 291.2 229.9 293.2 265.2 218.4 266.2" style="fill:#e5e5e5"/><polygon points="293.1 263.7 218.6 263.7 218.4 266.2 293.2 266.2 293.1 263.7" style="fill:#b7b7b7"/><polygon points="216.3 309.5 216.2 311.3 295.7 311.3 295.7 309.5 216.3 309.5" style="fill:#b7b7b7"/><defs><pattern id="Nueva_muestra_de_motivo_13" data-name="Nueva muestra de motivo 13" width="200" height="200" patternTransform="translate(240.2 63.42) scale(0.31)" patternUnits="userSpaceOnUse" viewBox="0 0 200 200"><rect width="200" height="200" style="fill:none"/><rect width="200" height="200" style="fill:#faa2d2"/><path d="M82,9.22A13.82,13.82,0,1,1,62.44,28.76a3.32,3.32,0,1,1,4.69-4.69A7.18,7.18,0,1,0,77.29,13.91,3.32,3.32,0,0,1,82,9.22Z" style="fill:#fff"/><path d="M72.26,33.82a14.87,14.87,0,0,1-10.53-4.35,4.32,4.32,0,0,1,6.11-6.11,6.22,6.22,0,0,0,4.4,1.84h0a6.13,6.13,0,0,0,4.36-1.8,6.23,6.23,0,0,0,0-8.79,4.3,4.3,0,0,1,0-6.1,4.32,4.32,0,0,1,6.1,0h0A14.8,14.8,0,0,1,72.26,33.82ZM64.78,24.1a2.32,2.32,0,0,0-1.63,3.95A12.82,12.82,0,1,0,81.28,9.93h0A2.32,2.32,0,0,0,78,13.2a8.21,8.21,0,0,1,0,11.61,8.07,8.07,0,0,1-5.77,2.39h0a8.23,8.23,0,0,1-5.81-2.42A2.31,2.31,0,0,0,64.78,24.1Z" style="fill:#1c1c1b"/><path d="M11.69,93.68A3.31,3.31,0,0,1,15,97a11.21,11.21,0,1,0,22.42,0,3.32,3.32,0,0,1,6.63,0A17.84,17.84,0,1,1,8.37,97,3.32,3.32,0,0,1,11.69,93.68Z" style="fill:#0ac5ff"/><path d="M26.21,115.83A18.86,18.86,0,0,1,7.37,97,4.32,4.32,0,0,1,16,97a10.21,10.21,0,1,0,20.42,0,4.32,4.32,0,0,1,8.63,0A18.86,18.86,0,0,1,26.21,115.83ZM11.69,94.68A2.32,2.32,0,0,0,9.37,97a16.84,16.84,0,1,0,33.68,0,2.32,2.32,0,0,0-4.63,0A12.21,12.21,0,1,1,14,97,2.32,2.32,0,0,0,11.69,94.68Z" style="fill:#1c1c1b"/><circle cx="61.45" cy="183.79" r="5.51" style="fill:#0ac5ff"/><path d="M61.45,190.3A6.51,6.51,0,1,1,68,183.79,6.52,6.52,0,0,1,61.45,190.3Zm0-11A4.51,4.51,0,1,0,66,183.79,4.51,4.51,0,0,0,61.45,179.28Z" style="fill:#1c1c1b"/><path d="M157.17,18.81a14.34,14.34,0,1,0-14.33,14.33A14.35,14.35,0,0,0,157.17,18.81Zm-6.63,0a7.7,7.7,0,1,1-7.7-7.71A7.71,7.71,0,0,1,150.54,18.81Z" style="fill:#fde77a"/><path d="M142.84,34.14a15.34,15.34,0,1,1,15.33-15.33A15.34,15.34,0,0,1,142.84,34.14Zm0-28.67a13.34,13.34,0,1,0,13.33,13.34A13.35,13.35,0,0,0,142.84,5.47Zm0,22a8.71,8.71,0,1,1,8.7-8.7A8.71,8.71,0,0,1,142.84,27.51Zm0-15.41a6.71,6.71,0,1,0,6.7,6.71A6.72,6.72,0,0,0,142.84,12.1Z" style="fill:#1c1c1b"/><path d="M31.52,152.32a14.34,14.34,0,1,0-14.34,14.33A14.36,14.36,0,0,0,31.52,152.32Zm-6.63,0a7.71,7.71,0,1,1-7.71-7.71A7.72,7.72,0,0,1,24.89,152.32Z" style="fill:#0ac5ff"/><path d="M17.18,167.65a15.34,15.34,0,1,1,15.34-15.33A15.34,15.34,0,0,1,17.18,167.65Zm0-28.67a13.34,13.34,0,1,0,13.34,13.34A13.35,13.35,0,0,0,17.18,139Zm0,22a8.71,8.71,0,1,1,8.71-8.7A8.71,8.71,0,0,1,17.18,161Zm0-15.41a6.71,6.71,0,1,0,6.71,6.71A6.71,6.71,0,0,0,17.18,145.61Z" style="fill:#1c1c1b"/><path d="M31.52,152.32a14.34,14.34,0,1,0-14.34,14.33A14.36,14.36,0,0,0,31.52,152.32Zm-6.63,0a7.71,7.71,0,1,1-7.71-7.71A7.72,7.72,0,0,1,24.89,152.32Z" style="fill:#00c7aa"/><path d="M17.18,167.65a15.34,15.34,0,1,1,15.34-15.33A15.34,15.34,0,0,1,17.18,167.65Zm0-28.67a13.34,13.34,0,1,0,13.34,13.34A13.35,13.35,0,0,0,17.18,139Zm0,22a8.71,8.71,0,1,1,8.71-8.7A8.71,8.71,0,0,1,17.18,161Zm0-15.41a6.71,6.71,0,1,0,6.71,6.71A6.71,6.71,0,0,0,17.18,145.61Z" style="fill:#1c1c1b"/><path d="M123.29,107.78a14.36,14.36,0,0,1-7.93,18.66,3.32,3.32,0,1,1-2.48-6.15A7.71,7.71,0,0,0,107.11,106a3.32,3.32,0,1,1-2.48-6.15A14.35,14.35,0,0,1,123.29,107.78Z" style="fill:#0ac5ff"/><path d="M114.12,127.68a4.32,4.32,0,0,1-1.62-8.32,6.71,6.71,0,0,0-5-12.44,4.25,4.25,0,0,1-3.3,0,4.32,4.32,0,0,1,.07-8,15.36,15.36,0,0,1,20,8.48h0a15.35,15.35,0,0,1-8.48,20A4.17,4.17,0,0,1,114.12,127.68ZM110,104.43a8.85,8.85,0,0,1,3.41.7,8.71,8.71,0,0,1-.15,16.09,2.31,2.31,0,1,0,1.73,4.29,13.33,13.33,0,1,0-10-24.73,2.31,2.31,0,0,0,1.73,4.29A8.8,8.8,0,0,1,110,104.43Z" style="fill:#1c1c1b"/><path d="M149.46,134.32a3.07,3.07,0,0,1,0-4.33,5.45,5.45,0,1,0-7.7-7.71,3.06,3.06,0,1,1-4.33-4.33,11.57,11.57,0,1,1,16.36,16.37A3.07,3.07,0,0,1,149.46,134.32Z" style="fill:#00c7aa"/><path d="M151.63,136.21a4.06,4.06,0,0,1-2.88-6.93,4.45,4.45,0,1,0-6.29-6.29,4.06,4.06,0,0,1-5.74-5.75A12.57,12.57,0,1,1,154.5,135,4,4,0,0,1,151.63,136.21Zm-6-16.52a6.45,6.45,0,0,1,4.56,11,2.06,2.06,0,0,0,2.91,2.92,10.57,10.57,0,0,0-15-15,2,2,0,0,0-.6,1.46,2,2,0,0,0,.6,1.45,2.11,2.11,0,0,0,2.92,0A6.46,6.46,0,0,1,145.61,119.69Z" style="fill:#1c1c1b"/><path d="M177.89,31.14A3.06,3.06,0,0,1,181,34.2a5.45,5.45,0,1,0,10.9,0,3.06,3.06,0,0,1,6.12,0,11.57,11.57,0,1,1-23.14,0A3.06,3.06,0,0,1,177.89,31.14Z" style="fill:#00c7aa"/><path d="M186.4,46.77A12.59,12.59,0,0,1,173.83,34.2a4.06,4.06,0,0,1,8.12,0,4.45,4.45,0,1,0,8.9,0,4.06,4.06,0,0,1,8.12,0A12.59,12.59,0,0,1,186.4,46.77Zm-8.51-14.63a2.06,2.06,0,0,0-2.06,2.06,10.57,10.57,0,1,0,21.14,0,2.06,2.06,0,0,0-4.12,0,6.45,6.45,0,1,1-12.9,0A2.06,2.06,0,0,0,177.89,32.14Z" style="fill:#1c1c1b"/><path d="M191.85,34.2a3.06,3.06,0,1,1,3.06,3.06A3.06,3.06,0,0,1,191.85,34.2Z" style="fill:#0ac5ff"/><path d="M194.91,38.26A4.06,4.06,0,1,1,199,34.2,4.06,4.06,0,0,1,194.91,38.26Zm0-6.12A2.06,2.06,0,1,0,197,34.2,2.06,2.06,0,0,0,194.91,32.14Z" style="fill:#1c1c1b"/><path d="M174.83,34.2a3.06,3.06,0,1,1,3.06,3.06A3.06,3.06,0,0,1,174.83,34.2Z" style="fill:#0ac5ff"/><path d="M177.89,38.26A4.06,4.06,0,1,1,182,34.2,4.06,4.06,0,0,1,177.89,38.26Zm0-6.12A2.06,2.06,0,1,0,180,34.2,2.06,2.06,0,0,0,177.89,32.14Z" style="fill:#1c1c1b"/><path d="M92.69,177.51a3.06,3.06,0,0,1-3.06-3.06,5.45,5.45,0,1,0-10.9,0,3.06,3.06,0,0,1-6.12,0,11.57,11.57,0,1,1,23.14,0A3.06,3.06,0,0,1,92.69,177.51Z" style="fill:#00c7aa"/><path d="M92.69,178.51a4.06,4.06,0,0,1-4.06-4.06,4.45,4.45,0,1,0-8.9,0,4.06,4.06,0,0,1-8.12,0,12.57,12.57,0,1,1,25.14,0A4.06,4.06,0,0,1,92.69,178.51ZM84.18,168a6.46,6.46,0,0,1,6.45,6.45,2.06,2.06,0,0,0,4.12,0,10.57,10.57,0,1,0-21.14,0,2.06,2.06,0,0,0,4.12,0A6.47,6.47,0,0,1,84.18,168Z" style="fill:#1c1c1b"/><path d="M78.73,174.45a3.06,3.06,0,1,1-3.06-3.06A3.06,3.06,0,0,1,78.73,174.45Z" style="fill:#0ac5ff"/><path d="M75.67,178.51a4.06,4.06,0,1,1,4.06-4.06A4.06,4.06,0,0,1,75.67,178.51Zm0-6.12a2.06,2.06,0,1,0,2.06,2.06A2.06,2.06,0,0,0,75.67,172.39Z" style="fill:#1c1c1b"/><path d="M95.75,174.45a3.06,3.06,0,1,1-3.06-3.06A3.06,3.06,0,0,1,95.75,174.45Z" style="fill:#0ac5ff"/><path d="M92.69,178.51a4.06,4.06,0,1,1,4.06-4.06A4.06,4.06,0,0,1,92.69,178.51Zm0-6.12a2.06,2.06,0,1,0,2.06,2.06A2.06,2.06,0,0,0,92.69,172.39Z" style="fill:#1c1c1b"/><path d="M101.45,43.68a3.05,3.05,0,0,1-4.33,0,5.45,5.45,0,1,0-7.71,7.71,3.06,3.06,0,1,1-4.33,4.33,11.58,11.58,0,0,1,16.37-16.37A3.05,3.05,0,0,1,101.45,43.68Z" style="fill:#fde77a"/><path d="M87.25,57.62a4,4,0,0,1-2.87-1.19,12.57,12.57,0,0,1,17.78-17.78,4.06,4.06,0,0,1,0,5.74h0a4.07,4.07,0,0,1-5.75,0,4.45,4.45,0,1,0-6.29,6.29,4.07,4.07,0,0,1-2.87,6.94Zm6-20.65a10.57,10.57,0,0,0-7.48,18,2.11,2.11,0,0,0,2.92,0,2.06,2.06,0,0,0,0-2.91A6.45,6.45,0,0,1,97.83,43a2.1,2.1,0,0,0,2.91,0h0a2.05,2.05,0,0,0,0-2.92A10.54,10.54,0,0,0,93.27,37Z" style="fill:#1c1c1b"/><path d="M89.41,51.39a3.06,3.06,0,1,1-4.33,0A3.05,3.05,0,0,1,89.41,51.39Z" style="fill:#0ac5ff"/><path d="M87.25,57.61a4.06,4.06,0,1,1,2.87-6.93h0a4.06,4.06,0,0,1-2.87,6.93Zm0-6.12a2,2,0,0,0-1.46.61,2.05,2.05,0,1,0,1.46-.61Z" style="fill:#1c1c1b"/><circle cx="99.28" cy="41.52" r="3.06" style="fill:#0ac5ff"/><path d="M99.28,45.58a4.06,4.06,0,1,1,2.88-1.19A4.05,4.05,0,0,1,99.28,45.58Zm0-6.12a2.06,2.06,0,1,0,1.46.6A2.05,2.05,0,0,0,99.28,39.46Z" style="fill:#1c1c1b"/><path d="M166.6,180.79a3.05,3.05,0,0,1-4.33,0,5.45,5.45,0,0,0-7.7,7.71,3.06,3.06,0,1,1-4.33,4.33,11.57,11.57,0,0,1,16.36-16.37A3.05,3.05,0,0,1,166.6,180.79Z" style="fill:#fde77a"/><path d="M152.4,194.73a4.07,4.07,0,0,1-2.87-1.19,12.57,12.57,0,0,1,17.78-17.78,4.06,4.06,0,0,1,0,5.74h0a4.07,4.07,0,0,1-5.75,0,4.45,4.45,0,0,0-6.29,6.29,4.07,4.07,0,0,1-2.87,6.94Zm6-20.65a10.57,10.57,0,0,0-7.48,18,2.11,2.11,0,0,0,2.92,0,2.06,2.06,0,0,0,0-2.91,6.45,6.45,0,0,1,9.12-9.12,2.11,2.11,0,0,0,2.91,0h0a2.05,2.05,0,0,0,0-2.92A10.49,10.49,0,0,0,158.42,174.08Z" style="fill:#1c1c1b"/><circle cx="152.4" cy="190.66" r="3.06" style="fill:#0ac5ff"/><path d="M152.4,194.72a4.06,4.06,0,1,1,2.87-1.18A4,4,0,0,1,152.4,194.72Zm0-6.12a2,2,0,0,0-1.46.61,2.06,2.06,0,1,0,2.92,0A2,2,0,0,0,152.4,188.6Z" style="fill:#1c1c1b"/><circle cx="164.44" cy="178.63" r="3.06" style="fill:#0ac5ff"/><path d="M164.44,182.69a4.06,4.06,0,1,1,2.87-1.19A4.09,4.09,0,0,1,164.44,182.69Zm0-6.12a2.06,2.06,0,1,0,1.45.6A2.06,2.06,0,0,0,164.44,176.57Z" style="fill:#1c1c1b"/><path d="M63.37,86.77a5.46,5.46,0,0,0,7.7,0A3.06,3.06,0,0,1,75.4,91.1,11.58,11.58,0,0,1,59,91.1a3.06,3.06,0,0,1,4.33-4.33Z" style="fill:#0ac5ff"/><path d="M67.22,95.48a12.53,12.53,0,0,1-8.89-3.67,4.07,4.07,0,0,1,2.87-6.94h0a4.08,4.08,0,0,1,2.88,1.19h0a4.44,4.44,0,0,0,6.29,0,4.06,4.06,0,0,1,5.74,5.75A12.53,12.53,0,0,1,67.22,95.48Zm-6-8.61a2.07,2.07,0,0,0-1.45,3.52,10.58,10.58,0,0,0,15,0,2.06,2.06,0,0,0,0-2.91,2.11,2.11,0,0,0-2.92,0,6.46,6.46,0,0,1-9.12,0h0a2.06,2.06,0,0,0-1.46-.61Z" style="fill:#1c1c1b"/><circle cx="73.24" cy="88.94" r="3.06" style="fill:#00c7aa"/><path d="M73.24,93a4.07,4.07,0,1,1,2.87-1.19A4.05,4.05,0,0,1,73.24,93Zm0-6.12a2.06,2.06,0,1,0,1.46.6A2.06,2.06,0,0,0,73.24,86.88Z" style="fill:#1c1c1b"/><circle cx="61.2" cy="88.94" r="3.06" style="fill:#00c7aa"/><path d="M61.2,93a4.07,4.07,0,1,1,2.88-1.19A4.05,4.05,0,0,1,61.2,93Zm0-6.13a2,2,0,0,0-1.45.61,2,2,0,1,0,1.45-.61Z" style="fill:#1c1c1b"/><path d="M87.25,119a6.62,6.62,0,0,1,4.48-6.27,3.25,3.25,0,0,0,2.15-3.1h0a3.31,3.31,0,0,0-4.35-3.16,13.27,13.27,0,0,0,0,25.06,3.31,3.31,0,0,0,4.35-3.15h0a3.24,3.24,0,0,0-2.15-3.1A6.63,6.63,0,0,1,87.25,119Z" style="fill:#00c7aa"/><path d="M90.59,132.72a4.24,4.24,0,0,1-1.39-.24,14.27,14.27,0,0,1,0-26.95,4.18,4.18,0,0,1,3.85.56,4.32,4.32,0,0,1,1.83,3.54,4.24,4.24,0,0,1-2.82,4,5.63,5.63,0,0,0,0,10.66,4.25,4.25,0,0,1,2.82,4,4.35,4.35,0,0,1-1.83,3.54A4.27,4.27,0,0,1,90.59,132.72Zm0-25.43a2,2,0,0,0-.73.13,12.26,12.26,0,0,0,0,23.17,2.2,2.2,0,0,0,2-.3,2.32,2.32,0,0,0,1-1.91,2.25,2.25,0,0,0-1.47-2.16,7.63,7.63,0,0,1,0-14.44,2.24,2.24,0,0,0,1.47-2.15,2.3,2.3,0,0,0-1-1.91A2.23,2.23,0,0,0,90.59,107.29Z" style="fill:#1c1c1b"/><path d="M188,113.75a13.26,13.26,0,0,1,10.61-13,3.3,3.3,0,0,0,2.65-3.24h0a3.32,3.32,0,0,0-4-3.25,19.89,19.89,0,0,0,0,39,3.32,3.32,0,0,0,4-3.25h0a3.32,3.32,0,0,0-2.65-3.25A13.26,13.26,0,0,1,188,113.75Z" style="fill:#fde77a"/><path d="M198,134.31a4.26,4.26,0,0,1-.86-.09,20.89,20.89,0,0,1,0-40.94,4.31,4.31,0,1,1,1.72,8.45,12.27,12.27,0,0,0,0,24,4.33,4.33,0,0,1,3.46,4.23,4.34,4.34,0,0,1-4.32,4.32Zm0-39.12a2.4,2.4,0,0,0-.46,0,18.89,18.89,0,0,0,0,37,2.32,2.32,0,0,0,2.78-2.27,2.32,2.32,0,0,0-1.85-2.27,14.26,14.26,0,0,1,0-27.95,2.31,2.31,0,0,0,1-4A2.29,2.29,0,0,0,198,95.19Z" style="fill:#1c1c1b"/><path d="M188,113.75a13.26,13.26,0,0,1,10.61-13,3.3,3.3,0,0,0,2.65-3.24h0a3.32,3.32,0,0,0-4-3.25,19.89,19.89,0,0,0,0,39,3.32,3.32,0,0,0,4-3.25h0a3.32,3.32,0,0,0-2.65-3.25A13.26,13.26,0,0,1,188,113.75Z" style="fill:#fde77a"/><path d="M198,134.31a4.26,4.26,0,0,1-.86-.09,20.89,20.89,0,0,1,0-40.94,4.31,4.31,0,1,1,1.72,8.45,12.27,12.27,0,0,0,0,24,4.33,4.33,0,0,1,3.46,4.23,4.34,4.34,0,0,1-4.32,4.32Zm0-39.12a2.4,2.4,0,0,0-.46,0,18.89,18.89,0,0,0,0,37,2.32,2.32,0,0,0,2.78-2.27,2.32,2.32,0,0,0-1.85-2.27,14.26,14.26,0,0,1,0-27.95,2.31,2.31,0,0,0,1-4A2.29,2.29,0,0,0,198,95.19Z" style="fill:#1c1c1b"/><path d="M38.81,74.24A6.62,6.62,0,0,1,43.29,68a3.25,3.25,0,0,0,2.15-3.1h0a3.31,3.31,0,0,0-4.35-3.16,13.27,13.27,0,0,0,0,25.06,3.31,3.31,0,0,0,4.35-3.15h0a3.24,3.24,0,0,0-2.15-3.1A6.63,6.63,0,0,1,38.81,74.24Z" style="fill:#fde77a"/><path d="M42.15,88a4.24,4.24,0,0,1-1.39-.24,14.27,14.27,0,0,1,0-26.95,4.18,4.18,0,0,1,3.85.56,4.36,4.36,0,0,1,1.83,3.54,4.23,4.23,0,0,1-2.83,4,5.64,5.64,0,0,0,0,10.66,4.26,4.26,0,0,1,2.83,4.05,4.38,4.38,0,0,1-1.83,3.54A4.27,4.27,0,0,1,42.15,88Zm0-25.43a2,2,0,0,0-.73.13,12.26,12.26,0,0,0,0,23.17,2.21,2.21,0,0,0,2-.3,2.32,2.32,0,0,0,1-1.91A2.25,2.25,0,0,0,43,81.46,7.63,7.63,0,0,1,43,67a2.23,2.23,0,0,0,1.47-2.15,2.3,2.3,0,0,0-1-1.91A2.27,2.27,0,0,0,42.15,62.53Z" style="fill:#1c1c1b"/><path d="M40.49,32.82a7.14,7.14,0,1,1-7.14-7.14A7.14,7.14,0,0,1,40.49,32.82Z" style="fill:#fde77a"/><path d="M33.35,41a8.15,8.15,0,1,1,8.14-8.15A8.16,8.16,0,0,1,33.35,41Zm0-14.29a6.15,6.15,0,1,0,6.14,6.14A6.15,6.15,0,0,0,33.35,26.68Z" style="fill:#1c1c1b"/><path d="M40.49,32.82a7.14,7.14,0,1,1-7.14-7.14A7.14,7.14,0,0,1,40.49,32.82Z" style="fill:#fde77a"/><path d="M33.35,41a8.15,8.15,0,1,1,8.14-8.15A8.16,8.16,0,0,1,33.35,41Zm0-14.29a6.15,6.15,0,1,0,6.14,6.14A6.15,6.15,0,0,0,33.35,26.68Z" style="fill:#1c1c1b"/><circle cx="124.58" cy="158.82" r="7.14" style="fill:#0ac5ff"/><path d="M124.58,167a8.14,8.14,0,1,1,8.14-8.14A8.15,8.15,0,0,1,124.58,167Zm0-14.28a6.14,6.14,0,1,0,6.14,6.14A6.14,6.14,0,0,0,124.58,152.68Z" style="fill:#1c1c1b"/><circle cx="124.58" cy="158.82" r="7.14" style="fill:#0ac5ff"/><path d="M124.58,167a8.14,8.14,0,1,1,8.14-8.14A8.15,8.15,0,0,1,124.58,167Zm0-14.28a6.14,6.14,0,1,0,6.14,6.14A6.14,6.14,0,0,0,124.58,152.68Z" style="fill:#1c1c1b"/><circle cx="100.72" cy="196.39" r="7.14" transform="translate(-29.49 18.18) rotate(-9)" style="fill:#fde77a"/><path d="M100.72,204.53a8.14,8.14,0,1,1,8.14-8.14A8.15,8.15,0,0,1,100.72,204.53Zm0-14.28a6.14,6.14,0,1,0,6.14,6.14A6.15,6.15,0,0,0,100.72,190.25Z" style="fill:#1c1c1b"/><circle cx="100.72" cy="196.39" r="7.14" transform="translate(-29.49 18.18) rotate(-9)" style="fill:#fde77a"/><path d="M100.72,204.53a8.14,8.14,0,1,1,8.14-8.14A8.15,8.15,0,0,1,100.72,204.53Zm0-14.28a6.14,6.14,0,1,0,6.14,6.14A6.15,6.15,0,0,0,100.72,190.25Z" style="fill:#1c1c1b"/><path d="M171.58,96.33a7.14,7.14,0,1,1-7.14-7.14A7.14,7.14,0,0,1,171.58,96.33Z" style="fill:#fff"/><path d="M164.44,104.47a8.14,8.14,0,1,1,8.14-8.14A8.15,8.15,0,0,1,164.44,104.47Zm0-14.28a6.14,6.14,0,1,0,6.14,6.14A6.14,6.14,0,0,0,164.44,90.19Z" style="fill:#1c1c1b"/><path d="M171.58,96.33a7.14,7.14,0,1,1-7.14-7.14A7.14,7.14,0,0,1,171.58,96.33Z" style="fill:#fff"/><path d="M164.44,104.47a8.14,8.14,0,1,1,8.14-8.14A8.15,8.15,0,0,1,164.44,104.47Zm0-14.28a6.14,6.14,0,1,0,6.14,6.14A6.14,6.14,0,0,0,164.44,90.19Z" style="fill:#1c1c1b"/><circle cx="15.47" cy="74.24" r="7.14" transform="translate(-11.19 3.25) rotate(-8.81)" style="fill:#fff"/><path d="M15.47,82.38a8.14,8.14,0,1,1,8.14-8.14A8.15,8.15,0,0,1,15.47,82.38Zm0-14.28a6.14,6.14,0,1,0,6.14,6.14A6.15,6.15,0,0,0,15.47,68.1Z" style="fill:#1c1c1b"/><circle cx="15.47" cy="74.24" r="7.14" transform="translate(-11.19 3.25) rotate(-8.81)" style="fill:#fff"/><path d="M15.47,82.38a8.14,8.14,0,1,1,8.14-8.14A8.15,8.15,0,0,1,15.47,82.38Zm0-14.28a6.14,6.14,0,1,0,6.14,6.14A6.15,6.15,0,0,0,15.47,68.1Z" style="fill:#1c1c1b"/><path d="M61.39,61.31A14.81,14.81,0,0,1,51,36a4.32,4.32,0,1,1,6.1,6.11,6.19,6.19,0,1,0,8.75,8.75A4.32,4.32,0,1,1,71.92,57h0A14.88,14.88,0,0,1,61.39,61.31ZM54,36.73a2.3,2.3,0,0,0-1.64.68A12.82,12.82,0,1,0,70.5,55.54a2.32,2.32,0,1,0-3.27-3.28A8.19,8.19,0,1,1,55.65,40.68a2.32,2.32,0,0,0-1.64-4Z" style="fill:#1c1c1b"/><path d="M146.52,169.26a4.31,4.31,0,0,1-3.05-1.26,14.81,14.81,0,1,1,20.95-20.95,4.31,4.31,0,1,1-6.1,6.1,6.16,6.16,0,0,0-4.4-1.83h0a6.15,6.15,0,0,0-6.16,6.18,6.22,6.22,0,0,0,1.83,4.4,4.31,4.31,0,0,1-3,7.36Zm7.38-24.57a12.72,12.72,0,0,0-9.05,3.74,12.86,12.86,0,0,0,0,18.16,2.32,2.32,0,0,0,3.28-3.28,8.22,8.22,0,0,1,0-11.61,8.28,8.28,0,0,1,5.81-2.38,8.16,8.16,0,0,1,5.81,2.42,2.32,2.32,0,1,0,3.27-3.28A12.87,12.87,0,0,0,153.9,144.69Z" style="fill:#1c1c1b"/><path d="M98.7,55.51a3.33,3.33,0,0,1,4.69,0,11.21,11.21,0,0,0,15.85-15.85A3.32,3.32,0,0,1,123.93,35,17.84,17.84,0,0,1,98.7,60.2,3.33,3.33,0,0,1,98.7,55.51Z" style="fill:#0ac5ff"/><path d="M111.32,66.42A18.78,18.78,0,0,1,98,60.91a4.3,4.3,0,0,1,0-6.1h0a4.3,4.3,0,0,1,6.1,0,10.21,10.21,0,0,0,14.44-14.44,4.31,4.31,0,0,1,6.1-6.1,18.83,18.83,0,0,1-13.32,32.15ZM101.05,55.54a2.3,2.3,0,0,0-1.64.68h0a2.3,2.3,0,0,0-.68,1.64,2.26,2.26,0,0,0,.68,1.63,16.84,16.84,0,0,0,23.81-23.81,2.37,2.37,0,0,0-3.27,0A2.32,2.32,0,0,0,120,39a12.2,12.2,0,0,1-17.26,17.26A2.3,2.3,0,0,0,101.05,55.54Z" style="fill:#1c1c1b"/><path d="M41.54,142.42a5.51,5.51,0,1,1,5.51,5.51A5.51,5.51,0,0,1,41.54,142.42Z" style="fill:#0ac5ff"/><path d="M47.05,148.93a6.51,6.51,0,1,1,6.51-6.51A6.52,6.52,0,0,1,47.05,148.93Zm0-11a4.51,4.51,0,1,0,4.51,4.51A4.52,4.52,0,0,0,47.05,137.91Z" style="fill:#1c1c1b"/><path d="M183.87,86.69a15.34,15.34,0,1,1,15.34-15.34A15.35,15.35,0,0,1,183.87,86.69Zm0-28.67a13.34,13.34,0,1,0,13.34,13.33A13.35,13.35,0,0,0,183.87,58Zm0,22a8.71,8.71,0,1,1,8.71-8.71A8.71,8.71,0,0,1,183.87,80.06Zm0-15.41a6.71,6.71,0,1,0,6.71,6.7A6.71,6.71,0,0,0,183.87,64.65Z" style="fill:#1c1c1b"/><path d="M142.9,61.84a14.36,14.36,0,0,1,0-20.27,3.31,3.31,0,1,1,4.69,4.68,7.71,7.71,0,0,0,10.9,10.9,3.32,3.32,0,0,1,4.69,4.69A14.36,14.36,0,0,1,142.9,61.84Z" style="fill:#fff"/><path d="M153,67a15.31,15.31,0,0,1-10.84-4.48h0a15.35,15.35,0,0,1,0-21.69,4.31,4.31,0,1,1,6.1,6.1,6.7,6.7,0,0,0,9.48,9.48,4.32,4.32,0,0,1,6.1,6.11A15.31,15.31,0,0,1,153,67Zm-9.43-5.9a13.35,13.35,0,0,0,18.86,0,2.31,2.31,0,0,0-3.27-3.27,8.7,8.7,0,1,1-12.31-12.31,2.32,2.32,0,1,0-3.28-3.28,13.35,13.35,0,0,0,0,18.86Z" style="fill:#1c1c1b"/><path d="M68.72,114.76A14.36,14.36,0,0,1,54.38,129.1a3.32,3.32,0,0,1,0-6.63,7.71,7.71,0,1,0,0-15.41,3.32,3.32,0,0,1,0-6.63A14.36,14.36,0,0,1,68.72,114.76Z" style="fill:#fff"/><path d="M54.38,130.1a4.32,4.32,0,0,1,0-8.63,6.71,6.71,0,1,0,0-13.41,4.32,4.32,0,0,1,0-8.63,15.34,15.34,0,1,1,0,30.67Zm0-28.67a2.32,2.32,0,0,0,0,4.63,8.71,8.71,0,1,1,0,17.41,2.32,2.32,0,0,0,0,4.63,13.34,13.34,0,1,0,0-26.67Z" style="fill:#1c1c1b"/><path d="M21.23,189.25A14.35,14.35,0,0,1,6.9,203.59a3.32,3.32,0,1,1,0-6.63,7.71,7.71,0,0,0,0-15.41,3.32,3.32,0,1,1,0-6.63A14.35,14.35,0,0,1,21.23,189.25Z" style="fill:#fff"/><path d="M6.9,204.59a4.32,4.32,0,1,1,0-8.63,6.71,6.71,0,0,0,0-13.41,4.32,4.32,0,1,1,0-8.63,15.34,15.34,0,0,1,0,30.67Zm0-28.67a2.32,2.32,0,1,0,0,4.63A8.71,8.71,0,0,1,6.9,198a2.32,2.32,0,1,0,0,4.63,13.34,13.34,0,0,0,0-26.67Z" style="fill:#1c1c1b"/><path d="M102.45,138.77a14.35,14.35,0,0,1,20.27,0,3.31,3.31,0,0,1-4.68,4.69,7.71,7.71,0,0,0-10.9,10.9,3.32,3.32,0,0,1-4.69,4.69A14.36,14.36,0,0,1,102.45,138.77Z" style="fill:#fff"/><path d="M104.8,161a4.29,4.29,0,0,1-3-1.26,15.33,15.33,0,0,1,0-21.68h0a15.33,15.33,0,0,1,21.68,0,4.31,4.31,0,1,1-6.1,6.1,6.7,6.7,0,0,0-9.48,9.48,4.31,4.31,0,0,1-3,7.36Zm7.79-25.43a13.25,13.25,0,0,0-9.43,3.9h0a13.35,13.35,0,0,0,0,18.86,2.31,2.31,0,0,0,3.27-3.27,8.71,8.71,0,0,1,12.31-12.32,2.32,2.32,0,1,0,3.28-3.27A13.29,13.29,0,0,0,112.59,135.58Z" style="fill:#1c1c1b"/><path d="M115.11,26.5a3.06,3.06,0,0,1-3.06-3.06,5.45,5.45,0,0,0-10.9,0,3.06,3.06,0,0,1-6.12,0,11.57,11.57,0,1,1,23.14,0A3.06,3.06,0,0,1,115.11,26.5Z" style="fill:#00c7aa"/><path d="M115.11,27.5a4.06,4.06,0,0,1-4.06-4.06,4.45,4.45,0,0,0-8.9,0,4.06,4.06,0,0,1-8.12,0,12.57,12.57,0,1,1,25.14,0A4.06,4.06,0,0,1,115.11,27.5ZM106.6,17a6.46,6.46,0,0,1,6.45,6.45,2.06,2.06,0,0,0,4.12,0,10.57,10.57,0,1,0-21.14,0,2.06,2.06,0,0,0,4.12,0A6.45,6.45,0,0,1,106.6,17Z" style="fill:#1c1c1b"/><path d="M26.61,16.2a3.07,3.07,0,0,1-4.33,0,5.45,5.45,0,0,0-7.71,7.7,3.06,3.06,0,0,1-4.33,4.33A11.57,11.57,0,0,1,26.61,11.87,3.07,3.07,0,0,1,26.61,16.2Z" style="fill:#0ac5ff"/><path d="M12.41,30.13a4.09,4.09,0,0,1-2.88-1.19A12.57,12.57,0,0,1,27.31,11.16a4,4,0,0,1,0,5.74,4.06,4.06,0,0,1-5.74,0,4.45,4.45,0,0,0-6.29,6.3,4.06,4.06,0,0,1-2.87,6.93Zm6-20.65A10.57,10.57,0,0,0,11,27.53a2.06,2.06,0,1,0,2.91-2.92,6.45,6.45,0,0,1,4.56-11A6.37,6.37,0,0,1,23,15.49a2.11,2.11,0,0,0,2.92,0,2.08,2.08,0,0,0,0-2.92A10.55,10.55,0,0,0,18.42,9.48Z" style="fill:#1c1c1b"/><circle cx="12.41" cy="26.07" r="3.06" style="fill:#fde77a"/><path d="M12.41,30.13a4.06,4.06,0,1,1,2.87-1.19A4.09,4.09,0,0,1,12.41,30.13Zm0-6.12a2.06,2.06,0,1,0,1.45.6A2.06,2.06,0,0,0,12.41,24Z" style="fill:#1c1c1b"/><circle cx="24.44" cy="14.03" r="3.06" style="fill:#fde77a"/><path d="M24.44,18.09a4,4,0,0,1-2.87-1.19,4.06,4.06,0,1,1,5.74,0A4,4,0,0,1,24.44,18.09Zm0-6.12a2.06,2.06,0,1,0,1.46.6A2.08,2.08,0,0,0,24.44,12Z" style="fill:#1c1c1b"/><path d="M132.87,101.19a5.45,5.45,0,0,0,5.45-5.44,3.06,3.06,0,1,1,6.12,0,11.58,11.58,0,0,1-11.57,11.57,3.07,3.07,0,0,1,0-6.13Z" style="fill:#fde77a"/><path d="M132.87,108.32a4.07,4.07,0,0,1,0-8.13h0a4.45,4.45,0,0,0,4.45-4.44,4.06,4.06,0,1,1,8.12,0A12.59,12.59,0,0,1,132.87,108.32Zm0-6.13a2.06,2.06,0,0,0-1.46.61,2,2,0,0,0-.6,1.45,2.07,2.07,0,0,0,2.06,2.07,10.59,10.59,0,0,0,10.57-10.57,2.06,2.06,0,1,0-4.12,0,6.46,6.46,0,0,1-6.45,6.44Z" style="fill:#1c1c1b"/><path d="M138.32,95.75a3.06,3.06,0,1,1,3.06,3.06A3.06,3.06,0,0,1,138.32,95.75Z" style="fill:#00c7aa"/><path d="M141.38,99.81a4.07,4.07,0,1,1,4.06-4.06A4.06,4.06,0,0,1,141.38,99.81Zm0-6.13a2.07,2.07,0,1,0,2.06,2.07A2.07,2.07,0,0,0,141.38,93.68Z" style="fill:#1c1c1b"/><path d="M129.81,104.25a3.06,3.06,0,1,1,3.06,3.07A3.06,3.06,0,0,1,129.81,104.25Z" style="fill:#00c7aa"/><path d="M132.87,108.32a4.07,4.07,0,1,1,4.06-4.07A4.07,4.07,0,0,1,132.87,108.32Zm0-6.13a2.07,2.07,0,1,0,2.06,2.06A2.06,2.06,0,0,0,132.87,102.19Z" style="fill:#1c1c1b"/><path d="M40,193.73a6.65,6.65,0,0,1,4.48-6.28,3.25,3.25,0,0,0,2.15-3.1h0a3.32,3.32,0,0,0-4.35-3.16,13.27,13.27,0,0,0,0,25.07,3.31,3.31,0,0,0,4.35-3.16h0a3.25,3.25,0,0,0-2.15-3.1A6.63,6.63,0,0,1,40,193.73Z" style="fill:#fde77a"/><path d="M43.32,207.44a4.13,4.13,0,0,1-1.38-.24,14.26,14.26,0,0,1,0-26.95,4.19,4.19,0,0,1,3.84.56,4.35,4.35,0,0,1,1.83,3.54,4.25,4.25,0,0,1-2.82,4.05,5.63,5.63,0,0,0,0,10.65,4.26,4.26,0,0,1,2.82,4,4.34,4.34,0,0,1-1.83,3.54A4.2,4.2,0,0,1,43.32,207.44Zm0-25.42a2.28,2.28,0,0,0-.73.12,12.26,12.26,0,0,0,0,23.17,2.2,2.2,0,0,0,2-.3,2.3,2.3,0,0,0,1-1.91A2.23,2.23,0,0,0,44.14,201a7.63,7.63,0,0,1,0-14.44,2.26,2.26,0,0,0,1.47-2.16,2.32,2.32,0,0,0-1-1.91A2.21,2.21,0,0,0,43.32,182Z" style="fill:#1c1c1b"/><path d="M103.68,81A13.27,13.27,0,0,1,119,87.78a3.32,3.32,0,0,0,3.83,1.71h0a3.32,3.32,0,0,0,2.09-4.7,19.89,19.89,0,0,0-37.6,10.27,3.31,3.31,0,0,0,4.18,3h0a3.3,3.3,0,0,0,2.43-3.41A13.27,13.27,0,0,1,103.68,81Z" style="fill:#fde77a"/><path d="M90.63,99.16a4.31,4.31,0,0,1-4.3-4,20.89,20.89,0,0,1,39.49-10.79,4.31,4.31,0,1,1-7.7,3.89,12.26,12.26,0,0,0-23.18,6.33A4.32,4.32,0,0,1,91.78,99,4.48,4.48,0,0,1,90.63,99.16Zm16.52-24.28a18.72,18.72,0,0,0-5,.66A19,19,0,0,0,88.32,95a2.31,2.31,0,1,0,4.62-.29,14.27,14.27,0,0,1,27-7.37,2.31,2.31,0,0,0,2.67,1.19A2.31,2.31,0,0,0,124,85.24,19,19,0,0,0,107.15,74.88Z" style="fill:#1c1c1b"/><path d="M103.68,81A13.27,13.27,0,0,1,119,87.78a3.32,3.32,0,0,0,3.83,1.71h0a3.32,3.32,0,0,0,2.09-4.7,19.89,19.89,0,0,0-37.6,10.27,3.31,3.31,0,0,0,4.18,3h0a3.3,3.3,0,0,0,2.43-3.41A13.27,13.27,0,0,1,103.68,81Z" style="fill:#fde77a"/><path d="M90.63,99.16a4.31,4.31,0,0,1-4.3-4,20.89,20.89,0,0,1,39.49-10.79,4.31,4.31,0,1,1-7.7,3.89,12.26,12.26,0,0,0-23.18,6.33A4.32,4.32,0,0,1,91.78,99,4.48,4.48,0,0,1,90.63,99.16Zm16.52-24.28a18.72,18.72,0,0,0-5,.66A19,19,0,0,0,88.32,95a2.31,2.31,0,1,0,4.62-.29,14.27,14.27,0,0,1,27-7.37,2.31,2.31,0,0,0,2.67,1.19A2.31,2.31,0,0,0,124,85.24,19,19,0,0,0,107.15,74.88Z" style="fill:#1c1c1b"/><path d="M51.09,167.64a20.74,20.74,0,0,1-11.49-3.45,4.32,4.32,0,0,1,4.76-7.2,12.26,12.26,0,0,0,17-17,4.32,4.32,0,0,1,.55-5.43,4.32,4.32,0,0,1,6.65.67,20.88,20.88,0,0,1-17.46,32.4ZM42,158.28a2.32,2.32,0,0,0-1.27,4.25,18.9,18.9,0,0,0,26.18-26.18A2.32,2.32,0,1,0,63,138.9a14.26,14.26,0,0,1-19.76,19.76A2.3,2.3,0,0,0,42,158.28Z" style="fill:#1c1c1b"/><path d="M51.09,167.64a20.74,20.74,0,0,1-11.49-3.45,4.32,4.32,0,0,1,4.76-7.2,12.26,12.26,0,0,0,17-17,4.32,4.32,0,0,1,.55-5.43,4.32,4.32,0,0,1,6.65.67,20.88,20.88,0,0,1-17.46,32.4ZM42,158.28a2.32,2.32,0,0,0-1.27,4.25,18.9,18.9,0,0,0,26.18-26.18A2.32,2.32,0,1,0,63,138.9a14.26,14.26,0,0,1-19.76,19.76A2.3,2.3,0,0,0,42,158.28Z" style="fill:#1c1c1b"/><path d="M186.77,192a13.26,13.26,0,0,1-16.69,1.69,3.3,3.3,0,0,0-4.17.42h0a3.32,3.32,0,0,0,.52,5.11A19.89,19.89,0,0,0,194,171.64a3.32,3.32,0,0,0-5.11-.52h0a3.3,3.3,0,0,0-.42,4.17A13.26,13.26,0,0,1,186.77,192Z" style="fill:#00c7aa"/><path d="M177.36,203.48A20.76,20.76,0,0,1,165.88,200a4.31,4.31,0,1,1,4.75-7.2,12.29,12.29,0,0,0,15.43-1.57h0a12.29,12.29,0,0,0,1.57-15.43,4.31,4.31,0,1,1,7.2-4.75,20.87,20.87,0,0,1-17.47,32.39Zm-9.11-9.36a2.32,2.32,0,0,0-1.63.67,2.32,2.32,0,0,0,.36,3.58,18.9,18.9,0,0,0,26.18-26.18,2.32,2.32,0,1,0-3.87,2.55,14.3,14.3,0,0,1-1.81,17.95h0a14.3,14.3,0,0,1-17.95,1.81A2.36,2.36,0,0,0,168.25,194.12Z" style="fill:#1c1c1b"/><path d="M186.77,192a13.26,13.26,0,0,1-16.69,1.69,3.3,3.3,0,0,0-4.17.42h0a3.32,3.32,0,0,0,.52,5.11A19.89,19.89,0,0,0,194,171.64a3.32,3.32,0,0,0-5.11-.52h0a3.3,3.3,0,0,0-.42,4.17A13.26,13.26,0,0,1,186.77,192Z" style="fill:#00c7aa"/><path d="M177.36,203.48A20.76,20.76,0,0,1,165.88,200a4.31,4.31,0,1,1,4.75-7.2,12.29,12.29,0,0,0,15.43-1.57h0a12.29,12.29,0,0,0,1.57-15.43,4.31,4.31,0,1,1,7.2-4.75,20.87,20.87,0,0,1-17.47,32.39Zm-9.11-9.36a2.32,2.32,0,0,0-1.63.67,2.32,2.32,0,0,0,.36,3.58,18.9,18.9,0,0,0,26.18-26.18,2.32,2.32,0,1,0-3.87,2.55,14.3,14.3,0,0,1-1.81,17.95h0a14.3,14.3,0,0,1-17.95,1.81A2.36,2.36,0,0,0,168.25,194.12Z" style="fill:#1c1c1b"/><path d="M15.9,50.91a6.63,6.63,0,0,1,6.28,4.48,3.24,3.24,0,0,0,3.1,2.15h0a3.31,3.31,0,0,0,3.15-4.35,13.27,13.27,0,0,0-25.06,0,3.31,3.31,0,0,0,3.16,4.35h0a3.25,3.25,0,0,0,3.1-2.15A6.62,6.62,0,0,1,15.9,50.91Z" style="fill:#0ac5ff"/><path d="M25.28,58.54a4.25,4.25,0,0,1-4.05-2.83,5.64,5.64,0,0,0-10.66,0,4.23,4.23,0,0,1-4,2.83A4.35,4.35,0,0,1,3,56.71a4.18,4.18,0,0,1-.56-3.85,14.27,14.27,0,0,1,27,0,4.21,4.21,0,0,1-.56,3.85A4.38,4.38,0,0,1,25.28,58.54ZM15.9,49.91a7.61,7.61,0,0,1,7.22,5.16,2.25,2.25,0,0,0,2.16,1.47,2.32,2.32,0,0,0,1.91-1,2.21,2.21,0,0,0,.3-2,12.26,12.26,0,0,0-23.17,0,2.21,2.21,0,0,0,.3,2,2.3,2.3,0,0,0,1.91,1,2.24,2.24,0,0,0,2.15-1.47A7.63,7.63,0,0,1,15.9,49.91Z" style="fill:#1c1c1b"/><path d="M129.84,188a6.65,6.65,0,0,1-4.49,6.28,3.25,3.25,0,0,0-2.14,3.1h0a3.3,3.3,0,0,0,4.34,3.15,13.26,13.26,0,0,0,0-25.06,3.3,3.3,0,0,0-4.34,3.15h0a3.27,3.27,0,0,0,2.14,3.11A6.63,6.63,0,0,1,129.84,188Z" style="fill:#fff"/><path d="M126.49,201.69a4.28,4.28,0,0,1-2.46-.79,4.37,4.37,0,0,1-1.82-3.54,4.24,4.24,0,0,1,2.82-4.05,5.63,5.63,0,0,0,0-10.66,4.24,4.24,0,0,1-2.82-4.05,4.34,4.34,0,0,1,1.82-3.53,4.21,4.21,0,0,1,3.85-.57,14.27,14.27,0,0,1,0,27A4.18,4.18,0,0,1,126.49,201.69Zm0-25.42a2.27,2.27,0,0,0-1.31.42,2.35,2.35,0,0,0-1,1.91,2.25,2.25,0,0,0,1.47,2.16,7.63,7.63,0,0,1,0,14.44,2.25,2.25,0,0,0-1.47,2.16,2.35,2.35,0,0,0,1,1.91,2.23,2.23,0,0,0,2,.3,12.27,12.27,0,0,0,0-23.18A2.33,2.33,0,0,0,126.5,176.27Z" style="fill:#1c1c1b"/><path d="M189.09,23.76a8.14,8.14,0,1,1,8.14-8.14A8.15,8.15,0,0,1,189.09,23.76Zm0-14.28a6.14,6.14,0,1,0,6.14,6.14A6.15,6.15,0,0,0,189.09,9.48Z" style="fill:#1c1c1b"/><path d="M189.09,23.76a8.14,8.14,0,1,1,8.14-8.14A8.15,8.15,0,0,1,189.09,23.76Zm0-14.28a6.14,6.14,0,1,0,6.14,6.14A6.15,6.15,0,0,0,189.09,9.48Z" style="fill:#1c1c1b"/><path d="M81.17,78.13A4.83,4.83,0,1,1,86,73.3,4.83,4.83,0,0,1,81.17,78.13Zm0-7.66A2.83,2.83,0,1,0,84,73.3,2.83,2.83,0,0,0,81.17,70.47Z" style="fill:#1c1c1b"/><path d="M85,73.3a3.83,3.83,0,1,1-3.83-3.83A3.83,3.83,0,0,1,85,73.3Z" style="fill:#0ac5ff"/><path d="M81.17,78.13A4.83,4.83,0,1,1,86,73.3,4.83,4.83,0,0,1,81.17,78.13Zm0-7.66A2.83,2.83,0,1,0,84,73.3,2.83,2.83,0,0,0,81.17,70.47Z" style="fill:#1c1c1b"/><path d="M15.47,130.1a4.83,4.83,0,1,1,4.82-4.83A4.84,4.84,0,0,1,15.47,130.1Zm0-7.65a2.83,2.83,0,1,0,2.82,2.82A2.83,2.83,0,0,0,15.47,122.45Z" style="fill:#1c1c1b"/><path d="M15.47,130.1a4.83,4.83,0,1,1,4.82-4.83A4.84,4.84,0,0,1,15.47,130.1Zm0-7.65a2.83,2.83,0,1,0,2.82,2.82A2.83,2.83,0,0,0,15.47,122.45Z" style="fill:#1c1c1b"/><path d="M173.36,171.48a4.83,4.83,0,1,1,4.83-4.83A4.83,4.83,0,0,1,173.36,171.48Zm0-7.65a2.83,2.83,0,1,0,2.83,2.82A2.82,2.82,0,0,0,173.36,163.83Z" style="fill:#1c1c1b"/><path d="M177.19,166.65a3.83,3.83,0,1,1-3.83-3.82A3.83,3.83,0,0,1,177.19,166.65Z" style="fill:#0ac5ff"/><path d="M173.36,171.48a4.83,4.83,0,1,1,4.83-4.83A4.83,4.83,0,0,1,173.36,171.48Zm0-7.65a2.83,2.83,0,1,0,2.83,2.82A2.82,2.82,0,0,0,173.36,163.83Z" style="fill:#1c1c1b"/><path d="M159.29,78.07a3.83,3.83,0,1,1-3.83-3.83A3.83,3.83,0,0,1,159.29,78.07Z" style="fill:#0ac5ff"/><path d="M155.46,82.89a4.83,4.83,0,1,1,4.83-4.82A4.82,4.82,0,0,1,155.46,82.89Zm0-7.65a2.83,2.83,0,1,0,2.83,2.83A2.83,2.83,0,0,0,155.46,75.24Z" style="fill:#1c1c1b"/><path d="M159.29,78.07a3.83,3.83,0,1,1-3.83-3.83A3.83,3.83,0,0,1,159.29,78.07Z" style="fill:#0ac5ff"/><path d="M155.46,82.89a4.83,4.83,0,1,1,4.83-4.82A4.82,4.82,0,0,1,155.46,82.89Zm0-7.65a2.83,2.83,0,1,0,2.83,2.83A2.83,2.83,0,0,0,155.46,75.24Z" style="fill:#1c1c1b"/><path d="M33.86,175.57A3.83,3.83,0,1,1,30,171.74,3.82,3.82,0,0,1,33.86,175.57Z" style="fill:#fff"/><path d="M30,180.39a4.83,4.83,0,1,1,4.83-4.82A4.82,4.82,0,0,1,30,180.39Zm0-7.65a2.83,2.83,0,1,0,2.83,2.83A2.83,2.83,0,0,0,30,172.74Z" style="fill:#1c1c1b"/><path d="M33.86,175.57A3.83,3.83,0,1,1,30,171.74,3.82,3.82,0,0,1,33.86,175.57Z" style="fill:#fff"/><path d="M30,180.39a4.83,4.83,0,1,1,4.83-4.82A4.82,4.82,0,0,1,30,180.39Zm0-7.65a2.83,2.83,0,1,0,2.83,2.83A2.83,2.83,0,0,0,30,172.74Z" style="fill:#1c1c1b"/><circle cx="178.58" cy="182.99" r="3.83" style="fill:#fff"/><path d="M178.58,187.82A4.83,4.83,0,1,1,183.4,183,4.84,4.84,0,0,1,178.58,187.82Zm0-7.65A2.83,2.83,0,1,0,181.4,183,2.83,2.83,0,0,0,178.58,180.17Z" style="fill:#1c1c1b"/><circle cx="178.58" cy="182.99" r="3.83" style="fill:#fff"/><path d="M178.58,187.82A4.83,4.83,0,1,1,183.4,183,4.84,4.84,0,0,1,178.58,187.82Zm0-7.65A2.83,2.83,0,1,0,181.4,183,2.83,2.83,0,0,0,178.58,180.17Z" style="fill:#1c1c1b"/><path d="M37.17,129.1a3.83,3.83,0,1,1-3.82-3.83A3.82,3.82,0,0,1,37.17,129.1Z" style="fill:#fde77a"/><path d="M33.35,133.92a4.83,4.83,0,1,1,4.82-4.82A4.83,4.83,0,0,1,33.35,133.92Zm0-7.65a2.83,2.83,0,1,0,2.82,2.83A2.83,2.83,0,0,0,33.35,126.27Z" style="fill:#1c1c1b"/><path d="M37.17,129.1a3.83,3.83,0,1,1-3.82-3.83A3.82,3.82,0,0,1,37.17,129.1Z" style="fill:#fde77a"/><path d="M33.35,133.92a4.83,4.83,0,1,1,4.82-4.82A4.83,4.83,0,0,1,33.35,133.92Zm0-7.65a2.83,2.83,0,1,0,2.82,2.83A2.83,2.83,0,0,0,33.35,126.27Z" style="fill:#1c1c1b"/><path d="M205.86,113.75a3.83,3.83,0,1,1-3.83-3.83A3.82,3.82,0,0,1,205.86,113.75Z" style="fill:#00c7aa"/><path d="M202,118.57a4.83,4.83,0,1,1,4.83-4.82A4.82,4.82,0,0,1,202,118.57Zm0-7.65a2.83,2.83,0,1,0,2.83,2.83A2.83,2.83,0,0,0,202,110.92Z" style="fill:#1c1c1b"/><path d="M205.86,113.75a3.83,3.83,0,1,1-3.83-3.83A3.82,3.82,0,0,1,205.86,113.75Z" style="fill:#00c7aa"/><path d="M202,118.57a4.83,4.83,0,1,1,4.83-4.82A4.82,4.82,0,0,1,202,118.57Zm0-7.65a2.83,2.83,0,1,0,2.83,2.83A2.83,2.83,0,0,0,202,110.92Z" style="fill:#1c1c1b"/><path d="M53.33,15.62a3.83,3.83,0,1,1-3.82-3.82A3.82,3.82,0,0,1,53.33,15.62Z" style="fill:#00c7aa"/><path d="M49.51,20.45a4.83,4.83,0,1,1,4.82-4.83A4.84,4.84,0,0,1,49.51,20.45Zm0-7.65a2.83,2.83,0,1,0,2.82,2.82A2.83,2.83,0,0,0,49.51,12.8Z" style="fill:#1c1c1b"/><path d="M53.33,15.62a3.83,3.83,0,1,1-3.82-3.82A3.82,3.82,0,0,1,53.33,15.62Z" style="fill:#00c7aa"/><path d="M49.51,20.45a4.83,4.83,0,1,1,4.82-4.83A4.84,4.84,0,0,1,49.51,20.45Zm0-7.65a2.83,2.83,0,1,0,2.82,2.82A2.83,2.83,0,0,0,49.51,12.8Z" style="fill:#1c1c1b"/><path d="M137.12,74.24a3.83,3.83,0,1,1-3.82-3.82A3.82,3.82,0,0,1,137.12,74.24Z" style="fill:#00c7aa"/><path d="M133.3,79.07a4.83,4.83,0,1,1,4.82-4.83A4.84,4.84,0,0,1,133.3,79.07Zm0-7.65a2.83,2.83,0,1,0,2.82,2.82A2.83,2.83,0,0,0,133.3,71.42Z" style="fill:#1c1c1b"/><path d="M137.12,74.24a3.83,3.83,0,1,1-3.82-3.82A3.82,3.82,0,0,1,137.12,74.24Z" style="fill:#00c7aa"/><path d="M133.3,79.07a4.83,4.83,0,1,1,4.82-4.83A4.84,4.84,0,0,1,133.3,79.07Zm0-7.65a2.83,2.83,0,1,0,2.82,2.82A2.83,2.83,0,0,0,133.3,71.42Z" style="fill:#1c1c1b"/><path d="M30,92a3.83,3.83,0,1,1-3.82-3.83A3.82,3.82,0,0,1,30,92Z" style="fill:#00c7aa"/><path d="M26.21,96.82A4.83,4.83,0,1,1,31,92,4.83,4.83,0,0,1,26.21,96.82Zm0-7.65A2.83,2.83,0,1,0,29,92,2.83,2.83,0,0,0,26.21,89.17Z" style="fill:#1c1c1b"/><path d="M30,92a3.83,3.83,0,1,1-3.82-3.83A3.82,3.82,0,0,1,30,92Z" style="fill:#00c7aa"/><path d="M26.21,96.82A4.83,4.83,0,1,1,31,92,4.83,4.83,0,0,1,26.21,96.82Zm0-7.65A2.83,2.83,0,1,0,29,92,2.83,2.83,0,0,0,26.21,89.17Z" style="fill:#1c1c1b"/><path d="M165.2,44.28a3.83,3.83,0,1,1-3.83-3.83A3.82,3.82,0,0,1,165.2,44.28Z" style="fill:#00c7aa"/><path d="M161.37,49.1a4.83,4.83,0,1,1,4.83-4.82A4.82,4.82,0,0,1,161.37,49.1Zm0-7.65a2.83,2.83,0,1,0,2.83,2.83A2.83,2.83,0,0,0,161.37,41.45Z" style="fill:#1c1c1b"/><path d="M165.2,44.28a3.83,3.83,0,1,1-3.83-3.83A3.82,3.82,0,0,1,165.2,44.28Z" style="fill:#00c7aa"/><path d="M161.37,49.1a4.83,4.83,0,1,1,4.83-4.82A4.82,4.82,0,0,1,161.37,49.1Zm0-7.65a2.83,2.83,0,1,0,2.83,2.83A2.83,2.83,0,0,0,161.37,41.45Z" style="fill:#1c1c1b"/><path d="M173.36,121.07a3.83,3.83,0,1,1-3.82-3.83A3.82,3.82,0,0,1,173.36,121.07Z" style="fill:#00c7aa"/><path d="M169.54,125.89a4.83,4.83,0,1,1,4.82-4.82A4.83,4.83,0,0,1,169.54,125.89Zm0-7.65a2.83,2.83,0,1,0,2.82,2.83A2.83,2.83,0,0,0,169.54,118.24Z" style="fill:#1c1c1b"/><path d="M173.36,121.07a3.83,3.83,0,1,1-3.82-3.83A3.82,3.82,0,0,1,173.36,121.07Z" style="fill:#00c7aa"/><path d="M169.54,125.89a4.83,4.83,0,1,1,4.82-4.82A4.83,4.83,0,0,1,169.54,125.89Zm0-7.65a2.83,2.83,0,1,0,2.82,2.83A2.83,2.83,0,0,0,169.54,118.24Z" style="fill:#1c1c1b"/><path d="M110.42,180.72a4.83,4.83,0,1,1,4.83-4.82A4.82,4.82,0,0,1,110.42,180.72Zm0-7.65a2.83,2.83,0,1,0,2.83,2.83A2.83,2.83,0,0,0,110.42,173.07Z" style="fill:#1c1c1b"/><path d="M110.42,180.72a4.83,4.83,0,1,1,4.83-4.82A4.82,4.82,0,0,1,110.42,180.72Zm0-7.65a2.83,2.83,0,1,0,2.83,2.83A2.83,2.83,0,0,0,110.42,173.07Z" style="fill:#1c1c1b"/><path d="M81.17,193.73a3.83,3.83,0,1,1-3.82-3.83A3.82,3.82,0,0,1,81.17,193.73Z" style="fill:#00c7aa"/><path d="M77.35,198.55a4.83,4.83,0,1,1,4.82-4.82A4.83,4.83,0,0,1,77.35,198.55Zm0-7.65a2.83,2.83,0,1,0,2.82,2.83A2.83,2.83,0,0,0,77.35,190.9Z" style="fill:#1c1c1b"/><path d="M81.17,193.73a3.83,3.83,0,1,1-3.82-3.83A3.82,3.82,0,0,1,81.17,193.73Z" style="fill:#00c7aa"/><path d="M77.35,198.55a4.83,4.83,0,1,1,4.82-4.82A4.83,4.83,0,0,1,77.35,198.55Zm0-7.65a2.83,2.83,0,1,0,2.82,2.83A2.83,2.83,0,0,0,77.35,190.9Z" style="fill:#1c1c1b"/><circle cx="171.58" cy="18.81" r="3.83" style="fill:#fde77a"/><path d="M171.58,23.63a4.83,4.83,0,1,1,4.82-4.82A4.83,4.83,0,0,1,171.58,23.63Zm0-7.65a2.83,2.83,0,1,0,2.82,2.83A2.83,2.83,0,0,0,171.58,16Z" style="fill:#1c1c1b"/><circle cx="171.58" cy="18.81" r="3.83" style="fill:#fde77a"/><path d="M171.58,23.63a4.83,4.83,0,1,1,4.82-4.82A4.83,4.83,0,0,1,171.58,23.63Zm0-7.65a2.83,2.83,0,1,0,2.82,2.83A2.83,2.83,0,0,0,171.58,16Z" style="fill:#1c1c1b"/><path d="M62,74.24a3.83,3.83,0,1,1-3.83-3.82A3.83,3.83,0,0,1,62,74.24Z" style="fill:#fde77a"/><path d="M58.14,79.07A4.83,4.83,0,1,1,63,74.24,4.83,4.83,0,0,1,58.14,79.07Zm0-7.65A2.83,2.83,0,1,0,61,74.24,2.82,2.82,0,0,0,58.14,71.42Z" style="fill:#1c1c1b"/><path d="M62,74.24a3.83,3.83,0,1,1-3.83-3.82A3.83,3.83,0,0,1,62,74.24Z" style="fill:#0ac5ff"/><path d="M58.14,79.07A4.83,4.83,0,1,1,63,74.24,4.83,4.83,0,0,1,58.14,79.07Zm0-7.65A2.83,2.83,0,1,0,61,74.24,2.82,2.82,0,0,0,58.14,71.42Z" style="fill:#1c1c1b"/><path d="M140.65,138a3.83,3.83,0,1,1-3.83-3.82A3.84,3.84,0,0,1,140.65,138Z" style="fill:#fde77a"/><path d="M136.82,142.81a4.83,4.83,0,1,1,4.83-4.83A4.83,4.83,0,0,1,136.82,142.81Zm0-7.65a2.83,2.83,0,1,0,2.83,2.82A2.82,2.82,0,0,0,136.82,135.16Z" style="fill:#1c1c1b"/><path d="M140.65,138a3.83,3.83,0,1,1-3.83-3.82A3.84,3.84,0,0,1,140.65,138Z" style="fill:#fde77a"/><path d="M136.82,142.81a4.83,4.83,0,1,1,4.83-4.83A4.83,4.83,0,0,1,136.82,142.81Zm0-7.65a2.83,2.83,0,1,0,2.83,2.82A2.82,2.82,0,0,0,136.82,135.16Z" style="fill:#1c1c1b"/><path d="M67.26,202.49a3.83,3.83,0,1,1-3.83-3.82A3.83,3.83,0,0,1,67.26,202.49Z" style="fill:#fde77a"/><path d="M63.43,207.32a4.83,4.83,0,1,1,4.83-4.83A4.82,4.82,0,0,1,63.43,207.32Zm0-7.65a2.83,2.83,0,1,0,2.83,2.82A2.82,2.82,0,0,0,63.43,199.67Z" style="fill:#1c1c1b"/><path d="M67.26,202.49a3.83,3.83,0,1,1-3.83-3.82A3.83,3.83,0,0,1,67.26,202.49Z" style="fill:#fde77a"/><path d="M63.43,207.32a4.83,4.83,0,1,1,4.83-4.83A4.82,4.82,0,0,1,63.43,207.32Zm0-7.65a2.83,2.83,0,1,0,2.83,2.82A2.82,2.82,0,0,0,63.43,199.67Z" style="fill:#1c1c1b"/><path d="M88.82,147.85A3.83,3.83,0,1,1,85,144,3.82,3.82,0,0,1,88.82,147.85Z" style="fill:#fde77a"/><path d="M85,152.68a4.83,4.83,0,1,1,4.82-4.83A4.84,4.84,0,0,1,85,152.68ZM85,145a2.83,2.83,0,1,0,2.82,2.82A2.83,2.83,0,0,0,85,145Z" style="fill:#1c1c1b"/><path d="M88.82,147.85A3.83,3.83,0,1,1,85,144,3.82,3.82,0,0,1,88.82,147.85Z" style="fill:#fde77a"/><path d="M85,152.68a4.83,4.83,0,1,1,4.82-4.83A4.84,4.84,0,0,1,85,152.68ZM85,145a2.83,2.83,0,1,0,2.82,2.82A2.83,2.83,0,0,0,85,145Z" style="fill:#1c1c1b"/><path d="M181.75,145.55a6.64,6.64,0,0,1-1.26-7.61,3.26,3.26,0,0,0-.68-3.71h0a3.3,3.3,0,0,0-5.3.85,13.27,13.27,0,0,0,17.72,17.72,3.31,3.31,0,0,0,.84-5.31h0a3.26,3.26,0,0,0-3.71-.67A6.64,6.64,0,0,1,181.75,145.55Z" style="fill:#0ac5ff"/><path d="M186.45,155.12a14.26,14.26,0,0,1-12.84-20.48,4.19,4.19,0,0,1,3.11-2.32,4.31,4.31,0,0,1,3.8,1.21,4.23,4.23,0,0,1,.86,4.85,5.64,5.64,0,0,0,7.54,7.54,4.23,4.23,0,0,1,4.86.87,4.36,4.36,0,0,1,1.21,3.79,4.21,4.21,0,0,1-2.32,3.12A14.24,14.24,0,0,1,186.45,155.12Zm-9-20.87a2.71,2.71,0,0,0-.4,0,2.19,2.19,0,0,0-1.65,1.22,12.26,12.26,0,0,0,16.38,16.39,2.23,2.23,0,0,0,1.23-1.65,2.32,2.32,0,0,0-.66-2.05,2.23,2.23,0,0,0-2.56-.48,7.64,7.64,0,0,1-10.21-10.22,2.24,2.24,0,0,0-.49-2.56A2.29,2.29,0,0,0,177.46,134.25Z" style="fill:#1c1c1b"/><path d="M-12,113.75a13.26,13.26,0,0,1,10.61-13,3.3,3.3,0,0,0,2.65-3.24h0a3.32,3.32,0,0,0-4-3.25,19.89,19.89,0,0,0,0,39,3.32,3.32,0,0,0,4-3.25h0a3.32,3.32,0,0,0-2.65-3.25A13.26,13.26,0,0,1-12,113.75Z" style="fill:#fde77a"/><path d="M-2,134.31a4.26,4.26,0,0,1-.86-.09,20.89,20.89,0,0,1,0-40.94,4.28,4.28,0,0,1,3.59.89,4.29,4.29,0,0,1,1.59,3.34,4.31,4.31,0,0,1-3.46,4.22,12.3,12.3,0,0,0-9.8,12,12.28,12.28,0,0,0,9.8,12A4.33,4.33,0,0,1,2.28,130a4.29,4.29,0,0,1-1.59,3.34A4.29,4.29,0,0,1-2,134.31Zm0-39.12a2.4,2.4,0,0,0-.46,0,18.89,18.89,0,0,0,0,37,2.29,2.29,0,0,0,1.93-.48A2.3,2.3,0,0,0,.28,130a2.32,2.32,0,0,0-1.85-2.27,14.26,14.26,0,0,1,0-27.95A2.31,2.31,0,0,0,.28,97.51a2.3,2.3,0,0,0-.85-1.79A2.29,2.29,0,0,0-2,95.19Z" style="fill:#1c1c1b"/><path d="M-12,113.75a13.26,13.26,0,0,1,10.61-13,3.3,3.3,0,0,0,2.65-3.24h0a3.32,3.32,0,0,0-4-3.25,19.89,19.89,0,0,0,0,39,3.32,3.32,0,0,0,4-3.25h0a3.32,3.32,0,0,0-2.65-3.25A13.26,13.26,0,0,1-12,113.75Z" style="fill:#fde77a"/><path d="M-2,134.31a4.26,4.26,0,0,1-.86-.09,20.89,20.89,0,0,1,0-40.94,4.28,4.28,0,0,1,3.59.89,4.29,4.29,0,0,1,1.59,3.34,4.31,4.31,0,0,1-3.46,4.22,12.3,12.3,0,0,0-9.8,12,12.28,12.28,0,0,0,9.8,12A4.33,4.33,0,0,1,2.28,130a4.29,4.29,0,0,1-1.59,3.34A4.29,4.29,0,0,1-2,134.31Zm0-39.12a2.4,2.4,0,0,0-.46,0,18.89,18.89,0,0,0,0,37,2.29,2.29,0,0,0,1.93-.48A2.3,2.3,0,0,0,.28,130a2.32,2.32,0,0,0-1.85-2.27,14.26,14.26,0,0,1,0-27.95A2.31,2.31,0,0,0,.28,97.51a2.3,2.3,0,0,0-.85-1.79A2.29,2.29,0,0,0-2,95.19Z" style="fill:#1c1c1b"/><path d="M5.86,113.75A3.83,3.83,0,1,1,2,109.92,3.82,3.82,0,0,1,5.86,113.75Z" style="fill:#00c7aa"/><path d="M2,118.57a4.83,4.83,0,1,1,4.83-4.82A4.82,4.82,0,0,1,2,118.57Zm0-7.65a2.83,2.83,0,1,0,2.83,2.83A2.83,2.83,0,0,0,2,110.92Z" style="fill:#1c1c1b"/><path d="M5.86,113.75A3.83,3.83,0,1,1,2,109.92,3.82,3.82,0,0,1,5.86,113.75Z" style="fill:#00c7aa"/><path d="M2,118.57a4.83,4.83,0,1,1,4.83-4.82A4.82,4.82,0,0,1,2,118.57Zm0-7.65a2.83,2.83,0,1,0,2.83,2.83A2.83,2.83,0,0,0,2,110.92Z" style="fill:#1c1c1b"/><path d="M107.86-3.61a7.13,7.13,0,0,1-7.14,7.14,7.14,7.14,0,0,1-7.14-7.14,7.14,7.14,0,0,1,7.14-7.14A7.14,7.14,0,0,1,107.86-3.61Z" style="fill:#fde77a"/><path d="M100.72,4.53a8.15,8.15,0,0,1-8.14-8.14,8.15,8.15,0,0,1,8.14-8.14,8.15,8.15,0,0,1,8.14,8.14A8.15,8.15,0,0,1,100.72,4.53Zm0-14.28a6.15,6.15,0,0,0-6.14,6.14,6.15,6.15,0,0,0,6.14,6.14,6.14,6.14,0,0,0,6.14-6.14A6.15,6.15,0,0,0,100.72-9.75Z" style="fill:#1c1c1b"/><path d="M107.86-3.61a7.13,7.13,0,0,1-7.14,7.14,7.14,7.14,0,0,1-7.14-7.14,7.14,7.14,0,0,1,7.14-7.14A7.14,7.14,0,0,1,107.86-3.61Z" style="fill:#fde77a"/><path d="M100.72,4.53a8.15,8.15,0,0,1-8.14-8.14,8.15,8.15,0,0,1,8.14-8.14,8.15,8.15,0,0,1,8.14,8.14A8.15,8.15,0,0,1,100.72,4.53Zm0-14.28a6.15,6.15,0,0,0-6.14,6.14,6.15,6.15,0,0,0,6.14,6.14,6.14,6.14,0,0,0,6.14-6.14A6.15,6.15,0,0,0,100.72-9.75Z" style="fill:#1c1c1b"/><path d="M21.23-10.75A14.35,14.35,0,0,1,6.9,3.59,3.32,3.32,0,0,1,3.58.27,3.32,3.32,0,0,1,6.9-3a7.72,7.72,0,0,0,7.7-7.71,7.71,7.71,0,0,0-7.7-7.7,3.32,3.32,0,0,1-3.32-3.32A3.32,3.32,0,0,1,6.9-25.08,14.35,14.35,0,0,1,21.23-10.75Z" style="fill:#fff"/><path d="M6.9,4.59A4.33,4.33,0,0,1,2.58.27,4.32,4.32,0,0,1,6.9-4a6.72,6.72,0,0,0,6.7-6.71,6.71,6.71,0,0,0-6.7-6.7,4.33,4.33,0,0,1-4.32-4.32A4.32,4.32,0,0,1,6.9-26.08,15.35,15.35,0,0,1,22.23-10.75,15.35,15.35,0,0,1,6.9,4.59Zm0-28.67a2.32,2.32,0,0,0-2.32,2.31A2.32,2.32,0,0,0,6.9-19.45a8.71,8.71,0,0,1,8.7,8.7A8.71,8.71,0,0,1,6.9-2,2.32,2.32,0,0,0,4.58.27,2.32,2.32,0,0,0,6.9,2.59,13.35,13.35,0,0,0,20.23-10.75,13.35,13.35,0,0,0,6.9-24.08Z" style="fill:#1c1c1b"/><path d="M40-6.27a6.65,6.65,0,0,1,4.48-6.28,3.25,3.25,0,0,0,2.15-3.1h0a3.31,3.31,0,0,0-4.35-3.15A13.25,13.25,0,0,0,33.35-6.27,13.26,13.26,0,0,0,42.26,6.26,3.31,3.31,0,0,0,46.61,3.1h0A3.25,3.25,0,0,0,44.46,0,6.63,6.63,0,0,1,40-6.27Z" style="fill:#fde77a"/><path d="M43.32,7.44a4.13,4.13,0,0,1-1.38-.24A14.26,14.26,0,0,1,32.35-6.27a14.26,14.26,0,0,1,9.59-13.48,4.19,4.19,0,0,1,3.84.56,4.35,4.35,0,0,1,1.83,3.54,4.25,4.25,0,0,1-2.82,4.05A5.63,5.63,0,0,0,41-6.27,5.62,5.62,0,0,0,44.79-.95,4.26,4.26,0,0,1,47.61,3.1a4.34,4.34,0,0,1-1.83,3.54A4.2,4.2,0,0,1,43.32,7.44Zm0-25.42a2.28,2.28,0,0,0-.73.12A12.27,12.27,0,0,0,34.35-6.27,12.26,12.26,0,0,0,42.59,5.31a2.2,2.2,0,0,0,2-.3,2.3,2.3,0,0,0,1-1.91A2.23,2.23,0,0,0,44.14,1,7.63,7.63,0,0,1,39-6.27a7.61,7.61,0,0,1,5.16-7.22,2.26,2.26,0,0,0,1.47-2.16,2.32,2.32,0,0,0-1-1.91A2.21,2.21,0,0,0,43.32-18Z" style="fill:#1c1c1b"/><path d="M186.77-8a13.26,13.26,0,0,1-16.69,1.69,3.3,3.3,0,0,0-4.17.42h0a3.32,3.32,0,0,0,.52,5.11,19.89,19.89,0,0,0,25-2.53,19.89,19.89,0,0,0,2.53-25,3.32,3.32,0,0,0-5.11-.52h0a3.3,3.3,0,0,0-.42,4.17A13.26,13.26,0,0,1,186.77-8Z" style="fill:#00c7aa"/><path d="M177.36,3.48A20.76,20.76,0,0,1,165.88,0,4.31,4.31,0,0,1,164-3.13a4.3,4.3,0,0,1,1.24-3.49,4.33,4.33,0,0,1,5.43-.54,12.29,12.29,0,0,0,15.43-1.57h0a12.29,12.29,0,0,0,1.57-15.43,4.31,4.31,0,0,1,.54-5.42,4.34,4.34,0,0,1,3.48-1.25,4.31,4.31,0,0,1,3.18,1.92,21,21,0,0,1-2.66,26.29A21,21,0,0,1,177.36,3.48Zm-9.11-9.36a2.32,2.32,0,0,0-1.63.67A2.34,2.34,0,0,0,166-3.33a2.34,2.34,0,0,0,1,1.7A18.94,18.94,0,0,0,190.75-4a18.94,18.94,0,0,0,2.41-23.77,2.34,2.34,0,0,0-1.7-1,2.34,2.34,0,0,0-1.88.67,2.33,2.33,0,0,0-.29,2.91,14.3,14.3,0,0,1-1.81,18h0A14.3,14.3,0,0,1,169.53-5.5,2.36,2.36,0,0,0,168.25-5.88Z" style="fill:#1c1c1b"/><path d="M186.77-8a13.26,13.26,0,0,1-16.69,1.69,3.3,3.3,0,0,0-4.17.42h0a3.32,3.32,0,0,0,.52,5.11,19.89,19.89,0,0,0,25-2.53,19.89,19.89,0,0,0,2.53-25,3.32,3.32,0,0,0-5.11-.52h0a3.3,3.3,0,0,0-.42,4.17A13.26,13.26,0,0,1,186.77-8Z" style="fill:#00c7aa"/><path d="M177.36,3.48A20.76,20.76,0,0,1,165.88,0,4.31,4.31,0,0,1,164-3.13a4.3,4.3,0,0,1,1.24-3.49,4.33,4.33,0,0,1,5.43-.54,12.29,12.29,0,0,0,15.43-1.57h0a12.29,12.29,0,0,0,1.57-15.43,4.31,4.31,0,0,1,.54-5.42,4.34,4.34,0,0,1,3.48-1.25,4.31,4.31,0,0,1,3.18,1.92,21,21,0,0,1-2.66,26.29A21,21,0,0,1,177.36,3.48Zm-9.11-9.36a2.32,2.32,0,0,0-1.63.67A2.34,2.34,0,0,0,166-3.33a2.34,2.34,0,0,0,1,1.7A18.94,18.94,0,0,0,190.75-4a18.94,18.94,0,0,0,2.41-23.77,2.34,2.34,0,0,0-1.7-1,2.34,2.34,0,0,0-1.88.67,2.33,2.33,0,0,0-.29,2.91,14.3,14.3,0,0,1-1.81,18h0A14.3,14.3,0,0,1,169.53-5.5,2.36,2.36,0,0,0,168.25-5.88Z" style="fill:#1c1c1b"/><path d="M129.84-12a6.65,6.65,0,0,1-4.49,6.28,3.25,3.25,0,0,0-2.14,3.1h0A3.3,3.3,0,0,0,127.55.51,13.27,13.27,0,0,0,136.47-12a13.27,13.27,0,0,0-8.92-12.53,3.3,3.3,0,0,0-4.34,3.15h0a3.27,3.27,0,0,0,2.14,3.11A6.63,6.63,0,0,1,129.84-12Z" style="fill:#fff"/><path d="M126.49,1.69A4.28,4.28,0,0,1,124,.9a4.37,4.37,0,0,1-1.82-3.54A4.24,4.24,0,0,1,125-6.69,5.63,5.63,0,0,0,128.84-12,5.63,5.63,0,0,0,125-17.35a4.24,4.24,0,0,1-2.82-4A4.34,4.34,0,0,1,124-24.93a4.21,4.21,0,0,1,3.85-.57A14.29,14.29,0,0,1,137.47-12a14.29,14.29,0,0,1-9.59,13.48A4.18,4.18,0,0,1,126.49,1.69Zm0-25.42a2.21,2.21,0,0,0-1.31.43,2.31,2.31,0,0,0-1,1.9,2.25,2.25,0,0,0,1.47,2.16A7.65,7.65,0,0,1,130.84-12a7.64,7.64,0,0,1-5.16,7.22,2.25,2.25,0,0,0-1.47,2.16,2.35,2.35,0,0,0,1,1.91,2.23,2.23,0,0,0,2,.3A12.29,12.29,0,0,0,135.47-12a12.29,12.29,0,0,0-8.24-11.59A2.33,2.33,0,0,0,126.5-23.73Z" style="fill:#1c1c1b"/><path d="M67.26,2.49a3.83,3.83,0,1,1-3.83-3.82A3.83,3.83,0,0,1,67.26,2.49Z" style="fill:#fde77a"/><path d="M63.43,7.32a4.83,4.83,0,1,1,4.83-4.83A4.83,4.83,0,0,1,63.43,7.32Zm0-7.65a2.83,2.83,0,1,0,2.83,2.82A2.82,2.82,0,0,0,63.43-.33Z" style="fill:#1c1c1b"/><path d="M67.26,2.49a3.83,3.83,0,1,1-3.83-3.82A3.83,3.83,0,0,1,67.26,2.49Z" style="fill:#fde77a"/><path d="M63.43,7.32a4.83,4.83,0,1,1,4.83-4.83A4.83,4.83,0,0,1,63.43,7.32Zm0-7.65a2.83,2.83,0,1,0,2.83,2.82A2.82,2.82,0,0,0,63.43-.33Z" style="fill:#1c1c1b"/></pattern></defs><path id="Inner_top" data-name="Inner top" d="M300.65,307.52l-35.16,7.2-55-5.18,10.25-79.48,7.76-20.66L241.25,206,251,222.43a6.56,6.56,0,0,0,11.37-.14l9.28-16.51,15.71,4.44,4.13,23Z" style="fill:url(#Nueva_muestra_de_motivo_13)"/><title>Zobu_base_Hand-01</title><polygon id="R_Hand" data-name="R Hand" points="203.41 262.33 235 263.12 242.72 255.11 245.54 239.95 253.01 242.37 247.98 255.32 257.42 257.87 279.33 257.31 279.33 262.35 261.8 264.41 259.01 275.07 253.86 281.01 240.27 281.83 232.78 273.68 199.03 270.57 203.41 262.33" style="fill:#f26522"/><polygon id="R_Hand-2" data-name="R Hand" points="268.55 232 259.37 241.92 257.47 256.85 249.64 254.49 254.26 241.83 245.62 238.95 224.49 240.53 223.71 235.63 240.67 233.28 243.17 222.88 248.04 217.02 261.21 215.95 266.6 221.58 268.55 232" style="fill:#f26522"/><polygon points="265.6 221.58 304.45 211.76 308.41 223.87 267.55 232 265.6 221.58" style="fill:#f26522"/><title>Zobu_Female_Hairstyle_Full_09</title><path id="Hair_11" data-name="Hair 11" d="M314.61,159.68s-3.06,9.41-10.56,4.9c0,0-2.14,13.68-14.15,13.07,0,0-9.07,1.67-15.09.09a39.67,39.67,0,0,0,10.34-9.25h0l6-9.74,0-.07,0-.07,4.21-15.09s-.7-9.49-6.71-13.54-25.8-14.81-34.25-28.11c0,0-4.64-5.59-15.18-3.9a13.08,13.08,0,0,0-5.57,2.33,38,38,0,0,0-5.58,4.91,40.56,40.56,0,0,0-4.49,7,51.69,51.69,0,0,0-5.38,17.32c0,.23-.06.38-.14.44s-.18,0-.33,0l-.14,0a4.54,4.54,0,0,0-2.54-.41h0a5.32,5.32,0,0,0-2.33,1,7.78,7.78,0,0,0-1.88,2.05,11.53,11.53,0,0,0-.87,1.58,14.89,14.89,0,0,0-1,3.4,15.94,15.94,0,0,0-.18,4.09,16.66,16.66,0,0,0,.46,2.84,11.34,11.34,0,0,0,2.14,4.4,8.49,8.49,0,0,0,1,1,4.89,4.89,0,0,0,6.82-.1l.18-.09h0c.24.77.45,1.52.67,2.26.14.46.28.92.43,1.37.07.2.15.4.21.6.16.46.32.92.49,1.36l.12.32c.08.2.15.41.24.62a2.31,2.31,0,0,0,.1.28l.06.14h0l.09.22c.1.23.2.46.29.69l.15.34.15.32c.12.28.24.56.37.83l.06.13c.12.27.24.53.37.79s.26.51.39.77.23.46.35.68c0,0,0,0,0,0s0,0,0,0l0,0,6.8,9.49.08.12s-8.58,7.79-16.87,3.62c-7.46-3.74-9.42-11.67-9.12-18.25s1.79-6.58,1.34-10.32-4.93-4.49-4.79-11.52,7.19-11.82,7.34-17.21,2-36.37,24.68-40.54c0,0,9.51-11,31.26-8.5,17.19,2,30.67,15.68,35.91,23.61s5.83,22.74,5.83,22.74,2.82,10.6,4.35,15.73.69,13-1.76,18.5S314.61,159.68,314.61,159.68Z" style="fill:#3b3936"/></svg>