<svg id="zomad" xmlns="http://www.w3.org/2000/svg" viewBox="154 0 200 512" style="background-color:#CDA3EF"><rect width="200%" height="100%" fill="#CDA3EF" />NaN2><defs><linearGradient id="linear-gradient" x1="259.21" y1="334.51" x2="253.35" y2="314.04" gradientTransform="matrix(1, 0, 0, -1, 0, 512)" gradientUnits="userSpaceOnUse"><stop offset="0.18" stop-color="#b73e11" stop-opacity="0.8"/><stop offset="0.78" stop-color="#eb6524"/></linearGradient></defs><path d="M293.8,212l7.56-.17a2.07,2.07,0,0,1,2,1.43l3.18,9.59a2.08,2.08,0,0,1-1.59,2.69l-15.47,3Z" style="fill:#f26522"/><path d="M199,270.6l-8.32-1.54a2.62,2.62,0,0,1-1.82-3.85L218.2,212l5.9,11.5Z" style="fill:#f26522"/><polygon points="238.2 305.3 226.3 305.3 220.3 378.7 223.3 440.4 233.2 440.4 231.2 379.2 238.2 305.3" style="fill:#f26522"/><polygon points="290.2 305.3 278.3 305.3 282.3 381.5 278.3 440.4 290.2 440.4 294.2 381.6 290.2 305.3" style="fill:#f26522"/><polygon points="226.3 435.6 232.2 435.3 236 454.4 199.9 454.4 203.9 448.9 226.3 435.6" style="fill:#f26522"/><polygon points="290.1 435.6 278.3 435.1 274.4 454.4 316.5 454.4 312.5 448.9 290.1 435.6" style="fill:#f26522"/><polygon points="295.8 310.3 216.2 310.3 221 223.4 218.2 212 247.3 204.4 255.8 221.9 266.6 204.4 293.8 212 291 226.4 295.8 310.3" style="fill:#f26522"/><polygon points="245 178.7 247.3 204.4 255.8 221.9 266.6 204.4 267.6 178.7 245 178.7" style="fill:#f26522"/><polygon points="245.1 180.7 267.5 181.1 266.9 196.7 246.2 192.5 245.1 180.7" style="fill:url(#linear-gradient)"/><path d="M256.5,156.2h17.1c.6,0,.8.1.6.7-1.4,6.3-5.4,10.3-11.3,12.4a19.16,19.16,0,0,1-20.7-5.2,14.76,14.76,0,0,1-3.5-7.2c-.1-.6-.1-.8.6-.8C245.1,156.2,250.8,156.2,256.5,156.2Z" style="fill:#fffefd"/><path d="M240.1,142a10.2,10.2,0,1,1,10.2-10.2v.1A10.16,10.16,0,0,1,240.1,142Zm.1-10.2a2.8,2.8,0,0,0-2.8,2.8,2.8,2.8,0,0,0,5.6,0h0a2.8,2.8,0,0,0-2.8-2.8Z" style="fill:#fffdfc"/><path d="M272.4,121.6a10.2,10.2,0,1,1-10.2,10.2v-.1a10.29,10.29,0,0,1,10.2-10.1Zm.2,10.2a2.8,2.8,0,1,0,2.8,2.8,2.8,2.8,0,0,0-2.8-2.8Z" style="fill:#fffdfc"/><path d="M280.8,116.6c-.1,1.2-.3,1.3-1.4,1.1-3-.7-5.9-1.3-8.9-1.9-.5-.1-.5-.3-.4-.7a4.33,4.33,0,0,1,.1-.5c0-.4.2-.5.6-.4l9.5,2.1C280.7,116.2,280.9,116.3,280.8,116.6Z" style="fill:#3b3936"/><path d="M242.5,114.3c.2,0,.2,0,.3.2.5.9.2,1.5-.7,1.7-3,.6-5.9,1.2-8.9,1.9-.5.1-.7,0-.8-.5,0-.2-.1-.4-.1-.7s0-.4.3-.4l9.7-2.1Z" style="fill:#3b3936"/><path d="M240.2,131.8a2.8,2.8,0,1,1-2.8,2.8,2.8,2.8,0,0,1,2.8-2.8Z" style="fill:#2c1814"/><path d="M272.6,131.8a2.8,2.8,0,1,1-2.8,2.8A2.8,2.8,0,0,1,272.6,131.8Z" style="fill:#2c1814"/><path d="M219.5,149.7c-.1,0-.1.1-.2.1-2.6,2.3-5.6,1.8-7.8-.9a12.65,12.65,0,0,1-2.6-7.2,16,16,0,0,1,1.2-7.5,8.23,8.23,0,0,1,2.8-3.6,4.61,4.61,0,0,1,4.9-.6c.5.2.6.1.6-.4a49.14,49.14,0,0,1,9.7-24.1c5.4-7,12.2-12,20.8-14.1,10.1-2.5,19.4-.5,27.8,5.4,8,5.5,13.1,13.2,16.3,22.2a43.72,43.72,0,0,1,2.4,10.1c.1.5.2.6.7.6a5.13,5.13,0,0,1,4.6,2,11.66,11.66,0,0,1,2.7,6.1,16.22,16.22,0,0,1-.9,8.7,8.8,8.8,0,0,1-2.8,3.8,4.82,4.82,0,0,1-4.9.7c-.5-.2-.7-.2-.9.4a47.17,47.17,0,0,1-7.4,15.5c-5,6.9-11.4,12.1-19.7,14.6-11.1,3.4-21.4,1.3-30.8-5.5a41.17,41.17,0,0,1-4-3.3,46.68,46.68,0,0,1-11.7-19.1A20.62,20.62,0,0,0,219.5,149.7Zm37.1,6.5H239.5c-.7,0-.7.2-.6.8a15.19,15.19,0,0,0,3.5,7.2,19.16,19.16,0,0,0,20.7,5.2c5.9-2.1,9.9-6.1,11.3-12.4.1-.6,0-.7-.6-.7-5.8-.1-11.5-.1-17.2-.1ZM240.1,142a10.2,10.2,0,1,0-10.2-10.2A10.24,10.24,0,0,0,240.1,142Zm32.3-20.4a10.2,10.2,0,1,0,10.2,10.2,10.24,10.24,0,0,0-10.2-10.2Zm8.4-5c.1-.3-.1-.4-.4-.4-3.2-.7-6.4-1.4-9.5-2.1-.4-.1-.6,0-.6.4a4.33,4.33,0,0,1-.1.5c-.1.4-.1.6.4.7,3,.6,5.9,1.3,8.9,1.9,1,.3,1.2.2,1.3-1Zm-38.3-2.2h-.1l-9.7,2.1c-.3.1-.4.2-.3.4a1.48,1.48,0,0,1,.1.7c.1.5.2.7.8.5,2.9-.7,5.9-1.3,8.9-1.9,1-.2,1.2-.8.7-1.7-.2-.2-.3-.2-.4-.1Z" style="fill:#f26724"/><path id="Pants" d="M295.7,309.5H216.3l-.9,39.5h24.5c1.4-5.7,14-21.6,14-21.6H260s14.6,15.9,16,21.6h19.6Z" style="fill:#e5e5e5"/><polygon points="218.4 266.2 220.5 233.3 230 208.9 233 208.2 255.8 230.8 278 207.6 282.8 208.9 291.2 229.9 293.2 265.2 218.4 266.2" style="fill:#e5e5e5"/><polygon points="293.1 263.7 218.6 263.7 218.4 266.2 293.2 266.2 293.1 263.7" style="fill:#b7b7b7"/><polygon points="216.3 309.5 216.2 311.3 295.7 311.3 295.7 309.5 216.3 309.5" style="fill:#b7b7b7"/><path d="M298.68,303l7.9,55.49-34.84,6.26-66.69-6.26,8.68-51.06c.9-4.68,3.91-22.79,4.24-27.55l1-23.9,1.88-19.35L214.5,253l-17.74-9.27L214,209.49l9.5-2.54,6.18-1.64h0l1.85-.5,4.6-.37h0l6.09-.49.46,0,4.68-.38h.05l2.37,5.15.25.52,5.37,11.63h0l.16.35.11.23.59-1s0,0,0,0l10-17,4.51.37,12,1,18.43,4.37,5.31,16.5-16.14,3.5,2.66,24.76L295,277.7C295.31,281.35,298,299.38,298.68,303Z" style="fill:#25a9e0"/><path d="M255.94,221.41l.58,19.13a.82.82,0,0,1-1.64.05v-.05l.58-19.13a.25.25,0,0,1,.25-.23A.25.25,0,0,1,255.94,221.41Z" style="fill:#148db2"/><polygon points="282.13 250.31 275.61 253.54 269.09 250.31 269.09 239.05 282.13 239.05 282.13 250.31" style="fill:#148db2"/><rect x="269.09" y="239.05" width="13.04" height="2.3" style="fill:#16859e"/><title>Zobu_base_Hand-01</title><polygon id="R_Hand" data-name="R Hand" points="203.41 262.33 235 263.12 242.72 255.11 245.54 239.95 253.01 242.37 247.98 255.32 257.42 257.87 279.33 257.31 279.33 262.35 261.8 264.41 259.01 275.07 253.86 281.01 240.27 281.83 232.78 273.68 199.03 270.57 203.41 262.33" style="fill:#f26522"/><polygon id="R_Hand-2" data-name="R Hand" points="268.55 232 259.37 241.92 257.47 256.85 249.64 254.49 254.26 241.83 245.62 238.95 224.49 240.53 223.71 235.63 240.67 233.28 243.17 222.88 248.04 217.02 261.21 215.95 266.6 221.58 268.55 232" style="fill:#f26522"/><polygon points="265.6 221.58 304.45 211.76 308.41 223.87 267.55 232 265.6 221.58" style="fill:#f26522"/><title>Zobu_Female_Hairstyle_Full_07</title><path d="M240.33,122.17A164.41,164.41,0,0,0,264,100.87,56.87,56.87,0,0,0,272.9,115c.62.73,1.28,1.45,2,2.18a41.38,41.38,0,0,0,20.93,12.28s3.45-48.53-38.9-49.95a44.92,44.92,0,0,0-17.44,3.4c0,.36,0,.72,0,1.09A14.12,14.12,0,0,1,221,97.43c-5.85,8.15-10.15,20-10.5,37.21,6.69,0,13.88-2.7,20.75-6.58A98.26,98.26,0,0,0,240.33,122.17Z" style="fill:#3b3936"/><path d="M239.51,84c0-.37,0-.73,0-1.09a14,14,0,1,0,0,1.09Z" style="fill:#3b3936"/></svg>