<svg id="zomad" xmlns="http://www.w3.org/2000/svg" viewBox="154 0 200 512" style="background-color:#24BF93"><rect width="200%" height="100%" fill="#24BF93" />NaN2><defs><linearGradient id="linear-gradient" x1="259.21" y1="334.51" x2="253.35" y2="314.04" gradientTransform="matrix(1, 0, 0, -1, 0, 512)" gradientUnits="userSpaceOnUse"><stop offset="0.18" stop-color="#b73e11" stop-opacity="0.8"/><stop offset="0.78" stop-color="#eb6524"/></linearGradient></defs><path d="M293.8,212l7.56-.17a2.07,2.07,0,0,1,2,1.43l3.18,9.59a2.08,2.08,0,0,1-1.59,2.69l-15.47,3Z" style="fill:#f26522"/><path d="M199,270.6l-8.32-1.54a2.62,2.62,0,0,1-1.82-3.85L218.2,212l5.9,11.5Z" style="fill:#f26522"/><polygon points="238.2 305.3 226.3 305.3 220.3 378.7 223.3 440.4 233.2 440.4 231.2 379.2 238.2 305.3" style="fill:#f26522"/><polygon points="290.2 305.3 278.3 305.3 282.3 381.5 278.3 440.4 290.2 440.4 294.2 381.6 290.2 305.3" style="fill:#f26522"/><polygon points="226.3 435.6 232.2 435.3 236 454.4 199.9 454.4 203.9 448.9 226.3 435.6" style="fill:#f26522"/><polygon points="290.1 435.6 278.3 435.1 274.4 454.4 316.5 454.4 312.5 448.9 290.1 435.6" style="fill:#f26522"/><polygon points="295.8 310.3 216.2 310.3 221 223.4 218.2 212 247.3 204.4 255.8 221.9 266.6 204.4 293.8 212 291 226.4 295.8 310.3" style="fill:#f26522"/><polygon points="245 178.7 247.3 204.4 255.8 221.9 266.6 204.4 267.6 178.7 245 178.7" style="fill:#f26522"/><polygon points="245.1 180.7 267.5 181.1 266.9 196.7 246.2 192.5 245.1 180.7" style="fill:url(#linear-gradient)"/><path d="M256.5,156.2h17.1c.6,0,.8.1.6.7-1.4,6.3-5.4,10.3-11.3,12.4a19.16,19.16,0,0,1-20.7-5.2,14.76,14.76,0,0,1-3.5-7.2c-.1-.6-.1-.8.6-.8C245.1,156.2,250.8,156.2,256.5,156.2Z" style="fill:#fffefd"/><path d="M240.1,142a10.2,10.2,0,1,1,10.2-10.2v.1A10.16,10.16,0,0,1,240.1,142Zm.1-10.2a2.8,2.8,0,0,0-2.8,2.8,2.8,2.8,0,0,0,5.6,0h0a2.8,2.8,0,0,0-2.8-2.8Z" style="fill:#fffdfc"/><path d="M272.4,121.6a10.2,10.2,0,1,1-10.2,10.2v-.1a10.29,10.29,0,0,1,10.2-10.1Zm.2,10.2a2.8,2.8,0,1,0,2.8,2.8,2.8,2.8,0,0,0-2.8-2.8Z" style="fill:#fffdfc"/><path d="M280.8,116.6c-.1,1.2-.3,1.3-1.4,1.1-3-.7-5.9-1.3-8.9-1.9-.5-.1-.5-.3-.4-.7a4.33,4.33,0,0,1,.1-.5c0-.4.2-.5.6-.4l9.5,2.1C280.7,116.2,280.9,116.3,280.8,116.6Z" style="fill:#3b3936"/><path d="M242.5,114.3c.2,0,.2,0,.3.2.5.9.2,1.5-.7,1.7-3,.6-5.9,1.2-8.9,1.9-.5.1-.7,0-.8-.5,0-.2-.1-.4-.1-.7s0-.4.3-.4l9.7-2.1Z" style="fill:#3b3936"/><path d="M240.2,131.8a2.8,2.8,0,1,1-2.8,2.8,2.8,2.8,0,0,1,2.8-2.8Z" style="fill:#2c1814"/><path d="M272.6,131.8a2.8,2.8,0,1,1-2.8,2.8A2.8,2.8,0,0,1,272.6,131.8Z" style="fill:#2c1814"/><path d="M219.5,149.7c-.1,0-.1.1-.2.1-2.6,2.3-5.6,1.8-7.8-.9a12.65,12.65,0,0,1-2.6-7.2,16,16,0,0,1,1.2-7.5,8.23,8.23,0,0,1,2.8-3.6,4.61,4.61,0,0,1,4.9-.6c.5.2.6.1.6-.4a49.14,49.14,0,0,1,9.7-24.1c5.4-7,12.2-12,20.8-14.1,10.1-2.5,19.4-.5,27.8,5.4,8,5.5,13.1,13.2,16.3,22.2a43.72,43.72,0,0,1,2.4,10.1c.1.5.2.6.7.6a5.13,5.13,0,0,1,4.6,2,11.66,11.66,0,0,1,2.7,6.1,16.22,16.22,0,0,1-.9,8.7,8.8,8.8,0,0,1-2.8,3.8,4.82,4.82,0,0,1-4.9.7c-.5-.2-.7-.2-.9.4a47.17,47.17,0,0,1-7.4,15.5c-5,6.9-11.4,12.1-19.7,14.6-11.1,3.4-21.4,1.3-30.8-5.5a41.17,41.17,0,0,1-4-3.3,46.68,46.68,0,0,1-11.7-19.1A20.62,20.62,0,0,0,219.5,149.7Zm37.1,6.5H239.5c-.7,0-.7.2-.6.8a15.19,15.19,0,0,0,3.5,7.2,19.16,19.16,0,0,0,20.7,5.2c5.9-2.1,9.9-6.1,11.3-12.4.1-.6,0-.7-.6-.7-5.8-.1-11.5-.1-17.2-.1ZM240.1,142a10.2,10.2,0,1,0-10.2-10.2A10.24,10.24,0,0,0,240.1,142Zm32.3-20.4a10.2,10.2,0,1,0,10.2,10.2,10.24,10.24,0,0,0-10.2-10.2Zm8.4-5c.1-.3-.1-.4-.4-.4-3.2-.7-6.4-1.4-9.5-2.1-.4-.1-.6,0-.6.4a4.33,4.33,0,0,1-.1.5c-.1.4-.1.6.4.7,3,.6,5.9,1.3,8.9,1.9,1,.3,1.2.2,1.3-1Zm-38.3-2.2h-.1l-9.7,2.1c-.3.1-.4.2-.3.4a1.48,1.48,0,0,1,.1.7c.1.5.2.7.8.5,2.9-.7,5.9-1.3,8.9-1.9,1-.2,1.2-.8.7-1.7-.2-.2-.3-.2-.4-.1Z" style="fill:#f26724"/><path id="Pants" d="M295.7,309.5H216.3l-.9,39.5h24.5c1.4-5.7,14-21.6,14-21.6H260s14.6,15.9,16,21.6h19.6Z" style="fill:#e5e5e5"/><polygon points="218.4 266.2 220.5 233.3 230 208.9 233 208.2 255.8 230.8 278 207.6 282.8 208.9 291.2 229.9 293.2 265.2 218.4 266.2" style="fill:#e5e5e5"/><polygon points="293.1 263.7 218.6 263.7 218.4 266.2 293.2 266.2 293.1 263.7" style="fill:#b7b7b7"/><polygon points="216.3 309.5 216.2 311.3 295.7 311.3 295.7 309.5 216.3 309.5" style="fill:#b7b7b7"/><defs><clipPath id="clip-path"><rect width="140.38" height="140.38" style="fill:none"/></clipPath><pattern id="New_Pattern_Swatch_1" data-name="New Pattern Swatch 1" width="140.38" height="140.38" patternTransform="translate(147.29 525.38)" patternUnits="userSpaceOnUse" viewBox="0 0 140.38 140.38"><rect width="140.38" height="140.38" style="fill:none"/><rect width="140.38" height="140.38" style="fill:#e1d9a1"/><path d="M36.36,72.68c-4,1.27-8.22,1.56-12,3.26s-7.18,5.49-6.48,9.59c.89,5.22,7.66,7.94,8.35,13.19.79,6.09-7.19,11.12-5.59,17.06.81,3,4,4.86,7.05,5s6.08-1,8.86-2.34S42,115.56,45,114.82c7.2-1.78,14.57,1.53,21.3,4.65s14.29,6.18,21.35,3.91c5-1.59,9.15-5.73,14.37-6,3.57-.21,7,1.43,10,3.3s6,4.06,9.37,5.15,7.53.82,10-1.74,2.61-7.3.47-10.4-6-4.73-9.71-4.93c-3-.16-6,.47-8.91-.06s-5.9-2.84-5.71-5.8c.08-1.33.78-2.55.9-3.87.31-3.43-3.35-6-6.76-6.4-4.67-.57-9.24,1.32-13.56,3.16s-8.93,3.69-13.58,3S65.44,94,66.24,89.32c.45-2.58,2.37-4.64,4.38-6.31s4.25-3.15,5.77-5.29,2.14-5.18.64-7.33c-2.18-3.12-7-2.38-10.39-.6-2,1.08-4.54,2.44-6.48,1.18-1.56-1-1.8-3.24-1.31-5s1.5-3.41,1.92-5.22a8.36,8.36,0,0,0-4.05-9c-6.66-3.61-12.06,2.57-12,8.89S43,70.54,36.36,72.68Z" style="fill:#232c25"/><path d="M28.67,22c-1.41.45-2.84,1.07-4.23,1.44a13.9,13.9,0,0,1-6.22.09c.34,1.11,1.38,2,2,3a5.29,5.29,0,0,1-6.08,7.87c-5.26-1.69-5.05-9.82-9.55-13A16.29,16.29,0,0,0,0,19.46V48.41a32.33,32.33,0,0,1,6.27-.65,43,43,0,0,1,11.91,2.45c8,2.83,15.17,7.59,22,12.6,1.61,1.17,3.29,2.4,5.26,2.67s4.28-.83,4.62-2.78a4.1,4.1,0,0,0-2.13-4,16.14,16.14,0,0,0-4.49-1.55A31.65,31.65,0,0,1,34.14,53,7.91,7.91,0,0,1,31,49.58c-.57-1.47-.13-3.44,1.32-4.08,2.83-1.25,6.08,3.3,8.71,1.66,1.76-1.11,1.16-3.84.07-5.61s-2.52-3.82-1.73-5.74,3.3-2.4,5.37-2.21,4.27.74,6.15-.15a4.32,4.32,0,0,0-1.33-8.18c-3.55-.44-6.94,3.47-10.25,2.13-2.37-1-3.12-4.12-5.33-5.39a4.61,4.61,0,0,0-2.29-.6A4.8,4.8,0,0,1,28.67,22Z" style="fill:#232c25"/><path d="M38.56,102.27c-.7,3.08-4.13,5-7.27,4.7a10.58,10.58,0,0,1-7.51-5.23A26.49,26.49,0,0,0,22.06,99c-1.84,3.22-4.42,6.39-8,6.47a6.14,6.14,0,0,1-2-.27c-.14.36-.29.71-.44,1-.94,2.13-2.53,4.23-4.82,4.65-3,.56-5.83-2.23-6.35-5.24a12.9,12.9,0,0,1,1.47-7.53A11.69,11.69,0,0,0,0,97.27V122a17.75,17.75,0,0,1,5.32-4c3.84-1.65,8.32-.74,12.17.9s7.4,4,11.38,5.25,8.7,1.37,12-1.24,5-8,9.27-8.8c3.33-.61,6.75,2,10,1,3-.94,4.32-5,3-7.9-1.75-4-5.61-4.49-9.21-5.72-4.71-1.61-9-5.68-13-8.53-.35-.25-.7-.5-1.07-.74a6,6,0,0,0-1.28,2.27C37.88,97,39.13,99.73,38.56,102.27Z" style="fill:#4a5b42"/><path d="M3,82.67c2.56,0,3.66,3.37,3.17,5.88-.59,3-2.27,5.64-3.68,8.35-.2.4-.41.81-.6,1.22a12.9,12.9,0,0,0-1.47,7.53c.52,3,3.35,5.8,6.35,5.24,2.29-.42,3.88-2.52,4.82-4.65.15-.34.3-.69.44-1a23.1,23.1,0,0,1,2.43-5.29c1.37-1.88,4-3.19,6-2.18A4.69,4.69,0,0,1,22.06,99a26.49,26.49,0,0,1,1.72,2.75A10.58,10.58,0,0,0,31.29,107c3.14.33,6.57-1.62,7.27-4.7.57-2.54-.68-5.25,0-7.74a6,6,0,0,1,1.28-2.27c2.54-2.88,7.56-4.08,9.08-7.79,1.27-3.11-.6-6.75-3.29-8.76s-6-2.85-9.2-4-6.37-2.87-7.91-5.85S27.3,59.3,25.1,57C22,53.68,16.38,55.43,12,54.09,8.39,53,5.5,49.62,1.7,49.5a6.42,6.42,0,0,0-1.7.18V84.25A5,5,0,0,1,3,82.67Z" style="fill:#8d9558"/><path d="M23.8,47.66a13.8,13.8,0,0,0-9.56-12.34l-2-.63c-1.66-.53-3.47-1.06-5.11-.44C4.29,35.31,3.72,39.45,5.39,42s4.72,3.78,7.65,4.58,6,1.39,8.5,3.15,4.12,5.19,2.74,7.9-4.81,3.4-7.75,4.11-6.34,2.44-6.41,5.46c-.07,2.43,2.27,4.38,4.67,4.79s4.82-.33,7.16-1,4.83-1.27,7.18-.63c3.13.85,5.3,3.73,6.64,6.7s2.13,6.19,3.81,9,4.65,5.14,7.89,4.84c2.81-.27,5.13-2.46,7.93-2.86s5.8,1.24,7.78,3.43,3.25,4.9,4.78,7.43a22.22,22.22,0,0,0,7.47,8c3.19,1.86,7.3,2.42,10.59.77s5.34-5.84,4-9.26c-1-2.6-3.59-4.19-5.57-6.16S80.94,87,82.53,84.73c1.73-2.49,5.46-1.92,8.5-1.9a10.48,10.48,0,0,0,6.58-1.94,6.12,6.12,0,0,0,2.32-6.18c-.56-2-2.34-3.47-4.07-4.67s-3.58-2.38-4.56-4.22a4.17,4.17,0,0,1,1.85-5.68c1.83-.89,3.64-2.83,5.14-4.11a6.52,6.52,0,0,0,2.52-5.56c-.4-3.12-3.82-5.1-7-5s-6,1.56-8.84,3-5.81,2.79-8.93,2.53c-6.71-.57-10.52-8-16.56-11a13.68,13.68,0,0,0-15,2.2c-2.64,2.45-4.17,5.84-6.43,8.65s-5.87,5.12-9.32,4.07c-2.93-.89-4.74-4-5-7.08A.28.28,0,0,0,23.8,47.66Z" style="fill:#4a5b42"/><path d="M41.19,16.31a11.12,11.12,0,0,0-5.52,2.43,5,5,0,0,0-1.41,5.53c1.23,2.57,4.89,3.06,6.41,5.47,2,3.22-.92,7.27-.92,11.07A7.13,7.13,0,0,0,51,46.62c2.45-1.75,3.6-4.88,6-6.74,3.32-2.59,8.21-2,12-.12s6.9,4.84,10.54,7,8.27,3.37,12,1.49c3-1.52,4.83-4.68,6.74-7.5s4.5-5.66,7.89-5.87c4.2-.26,8.56,3.6,12.21,1.5,2.41-1.38,2.86-5,1.31-7.32a8.18,8.18,0,0,0-7.33-3.15,18.61,18.61,0,0,0-7.8,2.76,7.81,7.81,0,0,1-2.81,1.15,2.4,2.4,0,0,1-2.53-1.28c-.49-1.28.62-2.6.74-4,.21-2.39-2.73-4-5.1-3.58s-4.32,2-6.45,3.11c-1.76.91-4.12,1.52-6,.56-1.7-.87-2.13-3-3.7-4-2.38-1.56-5.31-.34-8-.69-5-.65-9.73-2.85-14.71-3.65A41.46,41.46,0,0,0,41.19,16.31Z" style="fill:#8d9558"/><path d="M139.47,19.16A15.41,15.41,0,0,1,136,17.39a12.75,12.75,0,0,0-1.44.38c-6.06,2-9.19,9.25-8.36,15.59.61,4.71,4.17,14.58,9.67,15.27a17.16,17.16,0,0,0,4.49-.22V19.46C140.07,19.37,139.77,19.27,139.47,19.16Z" style="fill:#232c25"/><path d="M138.09,96.79c-2.71-.19-5.67,1.27-6.5,3.85s.57,5.46-.24,8c-1.22,3.88-6.49,4.85-8.72,8.26-1.92,3-.88,7.26,1.92,9.4a9.56,9.56,0,0,0,10,.55,25.75,25.75,0,0,0,5.85-4.86V97.27A9.43,9.43,0,0,0,138.09,96.79Z" style="fill:#4a5b42"/><path d="M134.46,54.89c-1.64,3.48-1.74,7.5-3.16,11.1-1.92,4.92-1.51,8.84.08,13.82a13.19,13.19,0,0,0,2.05,4.41,4.42,4.42,0,0,0,4.31,1.71,7.32,7.32,0,0,0,2.64-1.68V49.68A9.42,9.42,0,0,0,134.46,54.89Z" style="fill:#8d9558"/><path d="M41.63,139.25a21.41,21.41,0,0,0-2.89-2.59c-4.14-2.58-3.74,1.54-4.85,3.72h9.23A12.42,12.42,0,0,1,41.63,139.25Z" style="fill:#4a5b42"/><path d="M4.75,136.35a27.88,27.88,0,0,0-4.75-1v5.06H17.16C13,139.19,8.92,137.58,4.75,136.35Z" style="fill:#4a5b42"/><path d="M110.8,137.79a9.09,9.09,0,0,0,3.89-2.16c1-1.12,1.33-3,.3-4.08-1.78-1.89-3.69.17-5.42.71-2,.64-4.45.31-6.64.36a145.15,145.15,0,0,0-16,1.28A26.52,26.52,0,0,0,78.62,136a11.05,11.05,0,0,0-4.76,4.34h29.66Z" style="fill:#232c25"/><path d="M140.38,135.32c-3-.35-6,0-8.29,1.81a8.2,8.2,0,0,0-2.44,3.25h10.73Z" style="fill:#4a5b42"/><path d="M73.09,1.93,73,2.17c-.51,2.45.46,5.33,2.74,6.33,1.54.68,3.31.4,5,.11L82,8.4C86.83,7.64,92,7.23,96.08,9.69c3.07,1.81,5.11,4.94,7.85,7.21a17.37,17.37,0,0,0,10,4c2.56.16,5.56-.55,6.63-2.88,1.39-3-1.38-6.32-4.24-8a24.59,24.59,0,0,0-10.81-3.34A11.56,11.56,0,0,1,101.43,6a3,3,0,0,1-1.9-3.29C99.9,1.4,101.33.78,102.6.33l.92-.33H73.86A7.71,7.71,0,0,0,73.09,1.93Z" style="fill:#232c25"/><path d="M129.24,8A16.65,16.65,0,0,0,136,17.39a15.41,15.41,0,0,0,3.45,1.77c.3.11.6.21.91.3V0H129.65A12.44,12.44,0,0,0,129.24,8Z" style="fill:#4a5b42"/><path d="M37,116.12c-4.17.33-8.36-.48-12.54-.27s-8.69,1.75-10.74,5.4a8.22,8.22,0,0,0,8.49,12.15c2.85-.46,5.28-2.39,8.1-3,4.54-1.06,9.08,1.32,13.17,3.55s8.75,4.47,13.22,3.16c4.19-1.24,7-5.29,11-6.95,6.11-2.52,12.83,1,19.23,2.67a18.91,18.91,0,0,0,11,0c3.49-1.25,6.5-4.28,6.92-8s-2.36-7.66-6.06-7.85c-2.58-.13-4.91,1.42-7.17,2.69a17.63,17.63,0,0,1-8.4,2.6c-3,0-6.06-1.35-7.51-3.93-1.21-2.15-1.51-5.22-3.81-6.07-1.52-.56-3.2.21-4.54,1.13s-2.63,2-4.23,2.3-3.55-.89-3.37-2.5a5.14,5.14,0,0,1,.92-2,7.16,7.16,0,0,0-10.42-9.38c-3.5,2.56-1.75,5.86-3.21,9.06C45.44,114.35,40.39,115.85,37,116.12Z" style="fill:#8d9558"/><path d="M92.53,129a25.5,25.5,0,0,1-15.48-.57c-5.4-2-10.66-5.82-16.3-4.71-2.15.42-4.33,1.85-4.71,4a5.2,5.2,0,0,0,2.65,5,15.33,15.33,0,0,0,5.73,1.73c1.89-.76,3.35.39,5.16,1.32s3.57,2.13,5.59,2.38c2.41.3,4.75-.78,7.13-1.32,3.52-.79,7.18-.38,10.78-.35s7.44-.41,10.3-2.62c3.13-2.41,4.47-7.52,1.33-10.31a3,3,0,0,0-2.65-.75c-1.83.42-1.92,2.39-3,3.51A3.83,3.83,0,0,1,95,127a6.89,6.89,0,0,1-.73-.34,1.49,1.49,0,0,0-1.84,2.31A.52.52,0,0,0,92.53,129Z" style="fill:#4a5b42"/><path d="M102.45,56.33c-2.93.68-6,.78-8.91,1.3s-6,1.54-8.05,3.69S82.48,67,84,69.56c2.48,4.22,9.45,3.8,12,8s-1.17,9.37-.79,14.2a8.82,8.82,0,0,0,9,7.82c3.14-.19,6.2-2.12,9.26-1.37,2.91.71,4.68,3.55,6.64,5.82s5.26,4.23,7.81,2.65c2.32-1.43,2.33-5,.88-7.29s-3.88-3.77-6-5.49-4.1-4.06-4-6.78c.08-2.5,1.86-4.55,3.3-6.59s2.66-4.7,1.55-6.94c-1.23-2.48-4.64-3-6.39-5.18a6.44,6.44,0,0,1-.89-5.77,14.83,14.83,0,0,1,3-5.19c1.64-2,3.46-3.83,4.9-6a12.06,12.06,0,0,0,2.37-7.2c-.16-3.07-2.63-6.7-6.1-6.23-2.85.39-2.7,2.57-3.2,4.91C115.83,49.91,109.17,54.76,102.45,56.33Z" style="fill:#8d9558"/><path d="M134.19,34.62c-.85-4.06-7.5-4.41-8.64-8.39-.81-2.83,1.7-5.41,2.83-8.13C132,9.47,121.76,2.33,114.06,4.23c-3.24.8-6.11,4.13-5.15,7.33s5.34,5.37,4.64,8.68a4.92,4.92,0,0,1-3.39,3.25h0a5.28,5.28,0,0,1-6.47-2.75c-1.16-2.44-2.21-4.92-4.49-6.2-3.11-1.75-7.08-.42-10.53-1.38C86,12.43,84,10.46,82,8.4l-1.28.21c-1.66.29-3.43.57-5-.11-2.28-1-3.25-3.88-2.74-6.33-4.3-1.14-9.17-.59-13.71-.08C53.8,2.7,47.65,3,43.12,0H33.89a2.52,2.52,0,0,1-.52.74c-2.6,2.44-10.58.64-13.58-.06C18.91.48,18,.25,17.16,0H0V19.46a16.29,16.29,0,0,1,4.62,1.89c4.5,3.21,4.29,11.34,9.55,13a5.29,5.29,0,0,0,6.08-7.87c-.65-1-1.69-1.91-2-3a2.55,2.55,0,0,1-.12-.68c-.06-1.91,2.25-3.09,4.15-2.87s3.58,1.31,5.42,1.83a5.52,5.52,0,0,0,1,.19,4.8,4.8,0,0,0,3-.55,2.73,2.73,0,0,0,1.07-1.16c.6-1.28.1-2.8.41-4.17.5-2.21,3-3.45,5.29-3.24s4.23,1.54,6,2.92a20.53,20.53,0,0,0,5.68,3.62c3.37,1.15,7,.18,10.58-.16s7.72.3,9.49,3.38c2,3.45-.16,7.83.49,11.75.83,5,7.1,8.29,11.7,6.1,4.07-2,6.16-7,10.45-8.4l.06,0a4.2,4.2,0,0,1,5.42,4.26,16.77,16.77,0,0,0,.26,4c.93,5.06,3.86,9.95,8.48,12.21s10.93,1.2,13.79-3.07c1.06-1.58,1.62-3.48,2.87-4.9,1.69-1.93,4.31-2.67,6.57-3.88S134.71,37.13,134.19,34.62Z" style="fill:#4a5b42"/><path d="M113.72,67.09c-2.82.48-5.81.44-8.34,1.76s-4.31,4.75-2.65,7.08c1.28,1.79,3.92,2,6,1.34s3.93-2,6-2.74,4.66-.82,6.19.77c1.35,1.4,1.41,3.6,2.31,5.33A5.87,5.87,0,0,0,134,76c-.82-2.37-3.14-4.22-3.19-6.73,0-2.34,1.91-4.14,3.2-6.1,1.43-2.17,3.17-7.54,1.31-10-2.18-2.86-4.53,0-5.72,2C126,61.17,120.84,65.86,113.72,67.09Z" style="fill:#232c25"/><path d="M67,66.85a12,12,0,0,0-5.18-1.62,4.44,4.44,0,0,0-4.35,2.7c-.63,1.95.64,4,2,5.46s3.12,2.88,3.64,4.86c.58,2.24-.51,4.52-1.23,6.72s-.92,5,.89,6.44c2.5,2,6.47-.36,9.31,1.1s2.68,5.6,3.28,8.82a13.12,13.12,0,0,0,9.8,10.13c3.4.75,7.69-.45,8.71-3.78.74-2.38-.48-5-2.3-6.69S87.5,98.27,85.3,97.1a20.23,20.23,0,0,1-7.08-5.71,9.59,9.59,0,0,1-1.55-8.68c1.62-4.38,9.24-3.85,3.59-7.88A101.56,101.56,0,0,0,67,66.85Z" style="fill:#8d9558"/><path d="M68.94,56.86c-.13-1.88-2.51-2-4-2.43-3.4-1-11.32-7.48-14.11-2.91-.68,1.11-.58,2.55-1.14,3.73C48.4,58,44.57,58,41.51,58.06a14.19,14.19,0,0,0-8.65,2.7,8.19,8.19,0,0,0-3,5.24,1.61,1.61,0,0,1-.2.57,5.24,5.24,0,0,1-1,1.24c-1.93,1.69-4.27,2.84-6.34,4.36s-4,3.6-4.29,6.15,1.53,5.45,4.1,5.44c1.64,0,3-1.11,4.4-2s3.08-1.73,4.6-1.11c1.81.74,2.36,3.09,3.89,4.32,2.26,1.81,5.72.52,7.78-1.51A7.2,7.2,0,0,0,45,79.8,3.75,3.75,0,0,0,43.64,76c-2-1.36-5.3,0-6.9-1.87h0a1.51,1.51,0,0,1,.47-2.3,3.47,3.47,0,0,0,.57-.37c1.4-1.13,1.94-3,2.93-4.47,2-3,5.7-4.34,9.14-5.48,3.69-1.22,7.52-2.46,11.39-2C63.17,59.7,69.21,60.71,68.94,56.86Z" style="fill:#232c25"/><path d="M140.38,104.28a6.73,6.73,0,0,0-2.79,1.77c-3.49,3.51-1.91,10.1-5.45,13.58-1.6,1.57-3.91,2.13-5.95,3.07s-4.07,2.71-4,5c.11,2.47,2.65,4,4.92,5a76.84,76.84,0,0,0,13.15,4.29l.08,0Z" style="fill:#232c25"/><path d="M34.36,121.8c-1.24-2.28-4.39-2.48-7-2.21-3.6.37-6.47.39-8.45-3-1.69-2.84-2.17-4.73-5.08-6.48C10,107.84,4.76,102.78,0,104.28v32.66c3.33.76,7.1,1.2,9.92-.72,2.49-1.7,3.67-4.92,6.24-6.51,2.21-1.38,5-1.29,7.61-1.06s5.33.53,7.71-.53S35.61,124.08,34.36,121.8Z" style="fill:#232c25"/><path d="M90,10c-2.68-.83-5.86-1.76-8.07,0-2.4,1.89-1.81,6,.52,8s5.67,2.25,8.71,1.91c1.74-.2,3.55-.56,5.21,0,2.48.83,3.83,3.4,5.1,5.69s3,4.72,5.64,4.94c3.46.28,6.12-3.55,9.59-3.61,2.37-.05,4.38,1.68,6.65,2.33,3.88,1.12,8.31-1.32,9.8-5.07a10.12,10.12,0,0,0-2.9-11,11.4,11.4,0,0,0-8.92-2.72c-2.46.46-4.31,2.08-6.86,2.42C106.55,14,97.63,12.39,90,10Z" style="fill:#8d9558"/></pattern></defs><path d="M293.88,254.58l6.75,53.68-4.05.86-.94.2-28.95,6.15-51-4.4-5.29-.78,7.83-53.68,1.7-16.32-5.43,13.81-18.93-9.65,16.92-35.1,1.31-.26,17.26-3.45,16.2-1.29c3.62,7.64,15.34,7.92,19.34,0l16.78,1.29,18.8,4.34,5.43,16.44-16.17,3.43Z" style="fill:url(#New_Pattern_Swatch_1)"/><title>Zobu_Female_Specs_full_03</title><path d="M225.19,130.22a38,38,0,0,0,.36,4.88l.57,2.52c.67,4.68,9.86,7.72,16.22,9.76S251.83,138.85,253,133s-.81-6.8-.81-6.8l-.93-.49a43.1,43.1,0,0,0-22.5-3.08,3.35,3.35,0,0,0-1,.27C226.68,123.46,225.19,125.15,225.19,130.22Z" style="fill:#fae668"/><path d="M225.55,135.1a38,38,0,0,1-.36-4.88c0-5.07,1.49-6.76,2.54-7.32C223.62,124.78,225.55,135.1,225.55,135.1Z" style="fill:#fae668"/><path d="M287.88,130.48a38,38,0,0,1-.36,4.88l-.57,2.52c-.68,4.68-9.87,7.71-16.23,9.76s-9.06-8.88-10.21-14.74,1.32-6.93,1.32-6.93a42.94,42.94,0,0,1,22.49-3.08,3,3,0,0,1,1,.27C286.39,123.72,287.88,125.41,287.88,130.48Z" style="fill:#fae668"/><path d="M287.52,135.36a38,38,0,0,0,.36-4.88c0-5.07-1.49-6.76-2.54-7.32C289.45,125,287.52,135.36,287.52,135.36Z" style="fill:#fae668"/><path d="M290.3,123.34c.66,1.92,2.49,8.61-2.78,12,0,0,2.23-11.89-3.2-12.47a43.06,43.06,0,0,0-22.49,3.08s-2.46,1.08-1.32,6.94a44.43,44.43,0,0,0,2.91,9.83s-1.87,0-3.11-3.51c-1-2.94-2.67-7.73-4.06-7.73s-2.56,4.63-3.8,7.85-2.92,3.39-2.92,3.39.34-.25,2.51-7.43.1-8.48.1-8.48c-5.29-3.33-12.41-4.2-17.81-4.2l0-1.87c1.22,0,2.51,0,3.83.12,0,0,7.81-.23,18.3,5,0,0,19.39-9.89,33.15-3.3A1.39,1.39,0,0,1,290.3,123.34Z" style="fill:#221f1f"/><path d="M234.35,120.72l0,1.87a41.76,41.76,0,0,0-6.11.4c-4.39.65-2.78,12.22-2.78,12.22-5.55-3.53-3.05-11-2.24-13a1,1,0,0,1,.75-.6A57.83,57.83,0,0,1,234.35,120.72Z" style="fill:#221f1f"/><polygon points="219.67 122.77 222.21 125.58 221.96 127.46 219.28 124.31 219.67 122.77" style="fill:#221f1f"/><polygon points="290.48 123.91 293.72 120.84 294.03 121.89 290.8 125.15 290.48 123.91" style="fill:#221f1f"/><title>Zobu_base_Hand-01</title><polygon id="R_Hand" data-name="R Hand" points="203.41 262.33 235 263.12 242.72 255.11 245.54 239.95 253.01 242.37 247.98 255.32 257.42 257.87 279.33 257.31 279.33 262.35 261.8 264.41 259.01 275.07 253.86 281.01 240.27 281.83 232.78 273.68 199.03 270.57 203.41 262.33" style="fill:#f26522"/><polygon id="R_Hand-2" data-name="R Hand" points="268.55 232 259.37 241.92 257.47 256.85 249.64 254.49 254.26 241.83 245.62 238.95 224.49 240.53 223.71 235.63 240.67 233.28 243.17 222.88 248.04 217.02 261.21 215.95 266.6 221.58 268.55 232" style="fill:#f26522"/><polygon points="265.6 221.58 304.45 211.76 308.41 223.87 267.55 232 265.6 221.58" style="fill:#f26522"/><title>Zobu_Female_Hairstyle_Full_10</title><path d="M286.72,175.82a42.81,42.81,0,0,1-.41-6.54.12.12,0,0,1,.23,0c.18,1.58.72,3.55,2.33,3.39,2.66-.26,11.91-6.06,7.48-16.35a54.49,54.49,0,0,0-2.53-5,5.12,5.12,0,0,1-.86-.29,1.22,1.22,0,0,0-.45-.14c-.18,0-.28.17-.38.53a51.88,51.88,0,0,1-3.79,10l-.16.3-.85,1.58-.06.11c-.69,1.19-1.42,2.36-2.22,3.5-4.58,6.57-10.35,11.57-17.71,14.23l-.11,2.91,2.16,4.95s5.83-2.6,7.32-6.38c0,0,7-.18,6.73,6.38l.34-.44C284.59,187,287.37,181,286.72,175.82Z" style="fill:#2b2927"/><path d="M228.9,174.66c-.9,4.78-1.89,12.11-.92,15.09.8-.57,6.43-4.71,7.87-10,0,0,1.24,5.35.8,8,0,0,7.71-1.14,8.5-7.06a48.78,48.78,0,0,1-8.56-4.68,15.47,15.47,0,0,1-1.26-1l-.24-.2c-.4-.33-.78-.67-1.16-1s-.78-.72-1.15-1.09c-.53-.52-1-1.05-1.51-1.6-.26-.27-.49-.54-.72-.81a3.07,3.07,0,0,1-.29-.34c-.32-.38-.63-.76-.94-1.16l-.39-.52,0,.09S229.81,169.84,228.9,174.66Z" style="fill:#2b2927"/><path d="M313.33,131.53c.38-9.32-7.32-20.76-7.32-20.76-11.33-21.49-25.4-37.27-50.07-37.27s-25.59,15-25.59,15c-9.72-1.2-11,10.1-13.33,16.18s-7.54,12.35-11.17,21.88.5,11.73.5,11.73c-4.63,16.45,1.11,19.38,1.11,19.38-1.71,4-2.82,11.84-2.82,11.84-1.31,14,5.74,15.08,5.74,15.08.2-3.46,4.63-4.93,4.63-4.93,0,3.15,3,10.37,3.22,6.5s5.44-9,5.44-9c-.58,6,3.35,11.4,4.17,12.45l.11.14.05.06s0,0,0-.07c-1-3,0-10.31.92-15.09s.08-6.28.08-6.28l0-.09c-.78-1.56-11.6-23.35-8.58-29.14,2.86-5.51,3.49-20.11,7-25.66,8.48-13.23,14.55-15,20-16,9.7-1.76,22.34,16.65,22.34,16.65,7.47,13,18.27,27,24.05,37.23a54.49,54.49,0,0,1,2.53,5c4.43,10.29-4.82,16.09-7.48,16.35-1.61.16-2.15-1.81-2.33-3.39a.12.12,0,0,0-.23,0,42.81,42.81,0,0,0,.41,6.54c.65,5.19-2.13,11.14-2.94,12.75l-.23.44c5.07-.4,11-5.8,11-5.8l-.63,3.95c25-.92,18.63-20.43,18.63-20.43s-3.68-7.65-1.65-15.56S312.94,140.72,313.33,131.53Z" style="fill:#3b3936"/></svg>